<?xml version="1.0" standalone="no"?>
<!DOCTYPE svg PUBLIC "-//W3C//DTD SVG 20010904//EN"
 "http://www.w3.org/TR/2001/REC-SVG-20010904/DTD/svg10.dtd">
<svg version="1.0" xmlns="http://www.w3.org/2000/svg"
 width="1264.000000pt" height="771.000000pt" viewBox="0 0 1264.000000 771.000000"
 preserveAspectRatio="xMidYMid meet">

<g transform="translate(0.000000,771.000000) scale(0.100000,-0.100000)"
fill="#000000" stroke="none">
<path d="M293 7378 c-56 -57 -62 -82 -22 -102 13 -7 23 -17 22 -22 -1 -6 14
-19 33 -29 l35 -19 49 49 c28 27 50 56 50 65 0 17 -89 110 -106 110 -5 0 -33
-24 -61 -52z m41 -69 c-3 -5 -10 -7 -15 -3 -5 3 -7 10 -3 15 3 5 10 7 15 3 5
-3 7 -10 3 -15z m51 -39 c-10 -11 -20 -18 -23 -15 -7 6 18 35 31 35 5 0 2 -9
-8 -20z"/>
<path d="M592 7367 c-33 -35 -31 -109 4 -136 84 -66 180 47 113 133 -27 35
-86 36 -117 3z m82 -3 c31 -30 14 -144 -20 -144 -3 0 -14 5 -25 10 -15 9 -19
22 -19 68 0 76 27 104 64 66z"/>
<path d="M760 7365 c0 -27 17 -34 26 -10 4 9 19 15 35 15 l29 0 -45 -67 c-25
-37 -45 -73 -45 -80 0 -9 20 -13 70 -13 68 0 70 1 70 25 0 16 -6 25 -15 25 -8
0 -15 -7 -15 -15 0 -11 -11 -15 -35 -15 l-36 0 51 75 c27 41 50 77 50 80 0 3
-31 5 -70 5 -68 0 -70 -1 -70 -25z"/>
<path d="M3312 7144 c50 -199 52 -204 74 -204 19 0 24 10 39 73 10 39 20 75
24 79 3 4 15 -29 25 -72 16 -70 22 -80 40 -80 20 0 25 12 50 106 15 58 25 109
22 111 -16 17 -34 -15 -51 -87 -21 -90 -22 -90 -50 23 -13 51 -21 67 -35 67
-13 0 -21 -13 -29 -47 -7 -27 -17 -66 -23 -88 l-11 -40 -21 85 c-16 66 -25 86
-40 88 -14 3 -18 -1 -14 -14z"/>
<path d="M3790 7050 c0 -91 3 -110 15 -110 12 0 15 19 15 110 0 91 -3 110 -15
110 -12 0 -15 -19 -15 -110z"/>
<path d="M5415 7151 c-3 -5 -1 -12 5 -16 12 -7 30 2 30 16 0 12 -27 12 -35 0z"/>
<path d="M5110 7045 c0 -87 3 -105 15 -105 8 0 15 8 16 18 0 9 1 37 2 61 3 77
68 85 75 9 4 -42 -20 -72 -49 -63 -23 8 -26 -10 -3 -19 65 -25 113 68 68 132
-17 24 -62 30 -82 10 -9 -9 -12 -4 -12 25 0 26 -4 37 -15 37 -12 0 -15 -18
-15 -105z"/>
<path d="M5490 7045 c0 -87 3 -105 15 -105 12 0 15 18 15 105 0 87 -3 105 -15
105 -12 0 -15 -18 -15 -105z"/>
<path d="M3624 7079 c-28 -31 -25 -96 5 -120 30 -24 73 -24 102 1 l24 19 -55
-2 c-45 -2 -55 1 -58 16 -3 15 4 17 52 17 52 0 56 2 56 23 0 12 -7 33 -16 45
-21 30 -83 31 -110 1z m82 -16 c17 -17 16 -18 -20 -21 -45 -4 -54 2 -36 23 16
20 35 19 56 -2z"/>
<path d="M3880 7080 c-13 -13 -20 -33 -20 -60 0 -27 7 -47 20 -60 26 -26 81
-26 105 0 22 24 12 39 -15 22 -50 -31 -96 10 -72 63 15 33 38 41 61 21 33 -30
57 -14 25 18 -22 23 -80 20 -104 -4z"/>
<path d="M4054 7079 c-28 -31 -25 -96 5 -120 43 -35 102 -20 119 30 12 34 6
68 -16 94 -22 25 -84 23 -108 -4z m80 -15 c19 -18 21 -65 4 -82 -17 -17 -55
-15 -62 4 -12 31 -6 73 12 83 23 14 28 14 46 -5z"/>
<path d="M4220 7020 c0 -73 2 -80 20 -80 18 0 20 7 20 64 0 50 4 65 16 70 30
11 44 -13 44 -75 0 -46 3 -59 15 -59 12 0 15 13 15 60 0 46 4 61 18 68 33 17
42 3 42 -64 0 -57 2 -64 20 -64 18 0 20 7 20 61 0 33 -5 69 -10 80 -13 23 -62
26 -81 3 -11 -14 -13 -14 -21 0 -10 19 -68 22 -68 4 0 -9 -3 -9 -12 0 -29 29
-38 13 -38 -68z"/>
<path d="M4508 7083 c-33 -39 -26 -112 12 -133 31 -17 76 -11 96 11 l19 21
-49 -7 c-36 -6 -50 -4 -57 6 -16 25 -10 29 46 29 51 0 55 2 55 23 0 12 -7 33
-16 45 -19 28 -83 31 -106 5z m80 -15 c21 -21 13 -28 -28 -28 -22 0 -40 4 -40
8 0 14 23 32 40 32 9 0 21 -5 28 -12z"/>
<path d="M4774 7092 c-17 -11 -34 -48 -34 -74 0 -40 27 -68 66 -68 19 0 34 5
34 10 0 6 5 10 10 10 14 0 13 -43 -2 -58 -15 -15 -50 -16 -65 -1 -6 6 -17 8
-24 4 -19 -12 19 -35 58 -35 58 0 73 26 73 130 0 71 -3 90 -14 90 -8 0 -16 -6
-19 -12 -4 -10 -7 -10 -18 0 -14 13 -48 16 -65 4z m70 -28 c34 -33 9 -99 -34
-92 -35 4 -49 48 -26 82 19 30 38 33 60 10z"/>
<path d="M4950 7085 c-17 -21 -7 -29 18 -16 29 16 52 14 59 -5 7 -19 -13 -34
-48 -34 -32 0 -52 -21 -47 -51 5 -33 31 -46 68 -32 16 6 30 7 30 2 0 -5 7 -9
15 -9 22 0 21 122 -1 144 -20 20 -78 21 -94 1z m80 -84 c0 -40 -61 -56 -68
-18 -2 10 5 21 20 26 36 15 48 13 48 -8z"/>
<path d="M5290 7020 c0 -64 3 -80 15 -80 11 0 15 12 15 50 0 50 17 80 51 92 8
3 10 9 6 14 -4 4 -18 2 -30 -5 -15 -10 -22 -10 -25 -2 -2 6 -10 11 -18 11 -11
0 -14 -18 -14 -80z"/>
<path d="M5420 7020 c0 -64 3 -80 15 -80 12 0 15 16 15 80 0 64 -3 80 -15 80
-12 0 -15 -16 -15 -80z"/>
<path d="M7332 6743 c-4 -10 -5 -38 -1 -63 l6 -45 1 57 c1 34 7 58 15 61 9 4
9 6 0 6 -7 1 -16 -7 -21 -16z"/>
<path d="M7382 6743 c-4 -10 -5 -38 -1 -63 l6 -45 3 45 c1 25 2 49 1 54 -1 5
4 13 11 17 9 6 10 9 1 9 -7 0 -16 -8 -21 -17z"/>
<path d="M3340 6740 c0 -6 4 -9 9 -6 5 4 13 -8 16 -26 4 -18 14 -42 21 -53 18
-26 18 -20 -5 40 -17 46 -41 72 -41 45z"/>
<path d="M6168 6703 c-3 -40 -6 -48 -23 -48 -16 0 -20 7 -20 32 0 17 -3 29 -7
26 -13 -7 -9 -50 5 -61 7 -6 23 -10 35 -9 20 1 22 7 22 54 0 66 -8 69 -12 6z"/>
<path d="M7843 6695 c0 -33 2 -45 4 -27 2 18 2 45 0 60 -2 15 -4 0 -4 -33z"/>
<path d="M5832 6696 c2 -34 8 -51 18 -53 12 -4 12 -3 2 5 -8 6 -13 23 -11 45
2 20 0 39 -4 44 -5 4 -7 -14 -5 -41z"/>
<path d="M6259 6736 c-11 -12 6 -89 21 -93 10 -3 11 -2 3 4 -6 5 -13 28 -15
52 -2 23 -6 40 -9 37z"/>
<path d="M6818 6735 c-10 -11 8 -89 22 -92 12 -4 12 -3 2 5 -8 6 -13 23 -11
45 3 34 -2 52 -13 42z"/>
<path d="M7792 6696 c2 -34 8 -51 18 -53 12 -4 12 -3 2 5 -8 6 -13 23 -11 45
2 20 0 39 -4 44 -5 4 -7 -14 -5 -41z"/>
<path d="M4277 6720 c6 -8 13 -31 15 -50 l3 -35 5 42 c3 23 3 40 1 37 -2 -2
-11 2 -20 9 -14 10 -14 10 -4 -3z"/>
<path d="M4328 6718 c6 -7 12 -29 15 -48 4 -34 4 -34 5 6 2 31 -2 44 -14 48
-13 5 -14 3 -6 -6z"/>
<path d="M3321 6689 c-6 -18 -11 -37 -10 -43 0 -6 7 7 15 28 8 22 12 41 10 43
-2 2 -9 -10 -15 -28z"/>
<path d="M3424 6706 c-14 -36 23 -83 46 -60 8 8 4 10 -12 10 -19 -1 -23 4 -23
32 0 35 -3 40 -11 18z"/>
<path d="M3514 6706 c-14 -36 23 -83 46 -60 8 8 4 10 -12 10 -19 -1 -23 4 -23
32 0 35 -3 40 -11 18z"/>
<path d="M3657 6704 c5 -14 1 -16 -25 -12 -25 3 -32 1 -32 -12 0 -30 49 -56
64 -32 2 4 -7 8 -21 7 -14 0 -28 6 -30 13 -3 8 6 12 26 12 31 0 43 21 21 35
-6 4 -7 -1 -3 -11z"/>
<path d="M3701 6707 c-1 -10 9 -21 25 -27 29 -12 22 -34 -9 -26 -15 4 -17 2
-8 -7 8 -8 17 -8 27 -2 22 14 20 28 -4 40 -12 5 -23 16 -26 25 -3 11 -4 11 -5
-3z"/>
<path d="M3780 6705 c0 -9 11 -20 25 -25 33 -13 33 -34 -1 -27 -16 3 -22 1
-16 -5 15 -15 46 -5 50 14 2 12 -5 19 -23 24 -17 4 -24 11 -21 20 3 8 1 14 -4
14 -6 0 -10 -7 -10 -15z"/>
<path d="M3960 6706 c0 -8 -10 -16 -22 -18 -28 -4 -32 -42 -5 -44 12 -1 13 -1
2 3 -22 7 -19 33 4 33 12 0 21 -8 24 -22 2 -13 5 -4 6 20 0 23 -1 42 -4 42 -3
0 -5 -6 -5 -14z"/>
<path d="M4003 6680 c0 -25 2 -35 4 -22 2 12 2 32 0 45 -2 12 -4 2 -4 -23z"/>
<path d="M4060 6677 c4 -41 5 -41 8 -8 2 18 0 37 -5 42 -5 5 -6 -11 -3 -34z"/>
<path d="M4097 6713 c-12 -12 -7 -50 8 -63 18 -15 55 -4 55 18 0 13 -2 13 -14
-3 -21 -28 -49 -12 -44 25 5 32 5 33 -5 23z"/>
<path d="M4146 6705 c4 -8 8 -15 10 -15 2 0 4 7 4 15 0 8 -4 15 -10 15 -5 0
-7 -7 -4 -15z"/>
<path d="M4243 6680 c0 -25 2 -35 4 -22 2 12 2 32 0 45 -2 12 -4 2 -4 -23z"/>
<path d="M4426 6705 c4 -10 0 -15 -14 -15 -12 0 -23 -4 -26 -9 -3 -4 6 -6 21
-3 19 4 24 1 21 -9 -3 -8 -14 -14 -26 -13 -12 0 -19 -3 -16 -8 3 -4 16 -7 29
-6 22 2 25 7 25 40 0 21 -4 38 -10 38 -5 0 -7 -7 -4 -15z"/>
<path d="M4473 6680 c0 -25 2 -35 4 -22 2 12 2 32 0 45 -2 12 -4 2 -4 -23z"/>
<path d="M4610 6706 c0 -8 -10 -16 -22 -18 -28 -4 -32 -42 -5 -44 12 -1 13 -1
2 3 -22 7 -19 33 4 33 12 0 21 -8 24 -22 2 -13 5 -4 6 20 0 23 -1 42 -4 42 -3
0 -5 -6 -5 -14z"/>
<path d="M4657 6713 c-9 -9 -9 -51 1 -56 4 -3 7 10 7 29 0 19 0 34 -1 34 0 0
-4 -3 -7 -7z"/>
<path d="M4711 6690 c-2 -19 -2 -41 -1 -49 1 -8 -4 -18 -12 -22 -10 -7 -10 -9
0 -9 18 0 24 21 19 71 -3 42 -4 42 -6 9z"/>
<path d="M4757 6713 c-12 -12 -7 -50 8 -63 11 -10 21 -10 38 -2 21 10 20 10
-7 9 -16 -1 -31 4 -33 11 -3 8 6 12 26 12 31 0 43 21 21 35 -6 3 -7 -1 -4 -9
5 -12 -1 -16 -21 -16 -20 0 -26 4 -21 15 6 16 3 19 -7 8z"/>
<path d="M4891 6710 c0 -8 4 -22 9 -30 12 -18 12 -2 0 25 -6 13 -9 15 -9 5z"/>
<path d="M4941 6713 c-1 -6 -4 -20 -7 -30 -5 -17 -5 -17 6 0 6 10 9 23 6 30
-3 9 -5 9 -5 0z"/>
<path d="M4975 6700 c-3 -10 -1 -28 5 -40 11 -20 44 -27 54 -11 3 4 -5 6 -18
4 -29 -6 -45 29 -26 52 8 10 9 15 2 15 -6 0 -13 -9 -17 -20z"/>
<path d="M5033 6696 c7 -14 13 -23 15 -21 7 6 -9 45 -18 45 -4 0 -3 -11 3 -24z"/>
<path d="M5071 6695 c-1 -31 14 -55 33 -55 5 0 2 6 -6 13 -9 6 -19 26 -21 42
l-4 30 -2 -30z"/>
<path d="M5128 6684 c-2 -19 0 -37 4 -40 4 -3 8 13 8 35 0 51 -6 53 -12 5z"/>
<path d="M5170 6680 c0 -22 2 -40 4 -40 2 0 6 18 8 40 2 22 0 40 -4 40 -5 0
-8 -18 -8 -40z"/>
<path d="M5320 6706 c0 -8 -10 -16 -22 -18 -28 -4 -32 -42 -5 -44 12 -1 13 -1
2 3 -22 7 -19 33 4 33 12 0 21 -8 24 -22 2 -13 5 -4 6 20 0 23 -1 42 -4 42 -3
0 -5 -6 -5 -14z"/>
<path d="M5364 6706 c-14 -36 23 -83 46 -60 8 8 4 10 -12 10 -19 -1 -23 4 -23
32 0 35 -3 40 -11 18z"/>
<path d="M5454 6706 c-14 -36 23 -83 46 -60 8 8 4 10 -12 10 -19 -1 -23 4 -23
32 0 35 -3 40 -11 18z"/>
<path d="M5544 6695 c-4 -15 -1 -32 7 -41 15 -18 51 -15 57 6 5 13 3 13 -11 1
-27 -22 -50 -6 -43 29 7 36 -1 40 -10 5z"/>
<path d="M5596 6707 c3 -10 9 -15 12 -12 3 3 0 11 -7 18 -10 9 -11 8 -5 -6z"/>
<path d="M5644 6685 c1 -31 5 -41 21 -43 18 -4 19 -3 3 10 -9 7 -19 27 -21 43
-3 21 -4 18 -3 -10z"/>
<path d="M5790 6677 c4 -41 5 -41 8 -8 2 18 0 37 -5 42 -5 5 -6 -11 -3 -34z"/>
<path d="M5976 6707 c3 -10 -5 -16 -26 -21 -44 -8 -38 -41 8 -42 30 -1 32 1
32 32 0 18 -4 36 -10 39 -5 3 -7 0 -4 -8z m4 -36 c0 -6 -5 -13 -10 -16 -15 -9
-43 3 -35 15 8 13 45 13 45 1z"/>
<path d="M6020 6680 c0 -22 2 -40 4 -40 2 0 6 18 8 40 2 22 0 40 -4 40 -5 0
-8 -18 -8 -40z"/>
<path d="M6068 6680 c2 -22 6 -40 8 -40 2 0 4 18 4 40 0 22 -3 40 -8 40 -4 0
-6 -18 -4 -40z"/>
<path d="M6310 6680 c0 -22 2 -40 4 -40 2 0 6 18 8 40 2 22 0 40 -4 40 -5 0
-8 -18 -8 -40z"/>
<path d="M6416 6707 c3 -10 -5 -16 -26 -21 -44 -8 -38 -41 8 -42 30 -1 32 1
32 32 0 18 -4 36 -10 39 -5 3 -7 0 -4 -8z m4 -36 c0 -6 -5 -13 -10 -16 -15 -9
-43 3 -35 15 8 13 45 13 45 1z"/>
<path d="M6460 6680 c0 -22 2 -40 4 -40 2 0 6 18 8 40 2 22 0 40 -4 40 -5 0
-8 -18 -8 -40z"/>
<path d="M6508 6680 c2 -22 6 -40 8 -40 2 0 4 18 4 40 0 22 -3 40 -8 40 -4 0
-6 -18 -4 -40z"/>
<path d="M6550 6705 c0 -9 11 -20 25 -25 33 -13 33 -34 -1 -27 -16 3 -22 1
-16 -5 15 -15 46 -5 50 14 2 12 -5 19 -23 24 -17 4 -24 11 -21 20 3 8 1 14 -4
14 -6 0 -10 -7 -10 -15z"/>
<path d="M6680 6706 c0 -8 -8 -17 -17 -19 -14 -4 -12 -5 5 -6 16 -1 22 5 22
19 0 11 -2 20 -5 20 -3 0 -5 -6 -5 -14z"/>
<path d="M6724 6695 c-4 -15 -1 -32 6 -40 14 -17 46 -20 55 -6 3 6 -7 9 -22 8
-26 -2 -28 1 -27 31 2 38 -3 42 -12 7z"/>
<path d="M6775 6710 c3 -5 8 -10 11 -10 2 0 4 5 4 10 0 6 -5 10 -11 10 -5 0
-7 -4 -4 -10z"/>
<path d="M6873 6680 c0 -25 2 -35 4 -22 2 12 2 32 0 45 -2 12 -4 2 -4 -23z"/>
<path d="M6905 6700 c-3 -10 -1 -28 5 -40 11 -20 44 -27 54 -11 3 4 -5 6 -18
4 -29 -6 -45 29 -26 52 8 10 9 15 2 15 -6 0 -13 -9 -17 -20z"/>
<path d="M6963 6696 c7 -14 13 -23 15 -21 7 6 -9 45 -18 45 -4 0 -3 -11 3 -24z"/>
<path d="M7060 6677 c4 -41 5 -41 8 -8 2 18 0 37 -5 42 -5 5 -6 -11 -3 -34z"/>
<path d="M7101 6707 c-1 -10 9 -21 25 -27 29 -12 22 -34 -9 -26 -14 3 -17 2
-10 -5 15 -15 47 -7 51 13 2 12 -5 19 -22 24 -14 3 -27 13 -29 22 -4 15 -5 15
-6 -1z"/>
<path d="M7225 6700 c-3 -10 -1 -28 5 -40 11 -20 44 -27 54 -11 4 5 -3 7 -15
4 -12 -4 -25 0 -30 8 -6 11 -1 16 24 20 l32 6 -34 2 c-29 1 -32 3 -21 16 8 9
8 15 2 15 -6 0 -13 -9 -17 -20z"/>
<path d="M7275 6710 c3 -5 8 -10 11 -10 2 0 4 5 4 10 0 6 -5 10 -11 10 -5 0
-7 -4 -4 -10z"/>
<path d="M7474 6706 c-14 -36 23 -83 46 -60 8 8 4 10 -12 10 -19 -1 -23 4 -23
32 0 35 -3 40 -11 18z"/>
<path d="M7607 6713 c-12 -12 -7 -50 8 -63 11 -10 21 -10 38 -2 21 10 20 10
-7 9 -16 -1 -31 4 -33 11 -3 8 6 12 26 12 31 0 43 21 21 35 -6 3 -7 -1 -4 -9
5 -12 -1 -16 -21 -16 -20 0 -26 4 -21 15 6 16 3 19 -7 8z"/>
<path d="M7750 6677 c4 -41 5 -41 8 -8 2 18 0 37 -5 42 -5 5 -6 -11 -3 -34z"/>
<path d="M7881 6717 c-1 -4 6 -24 14 -45 15 -34 15 -38 -1 -49 -16 -11 -16
-13 -2 -13 9 0 21 14 27 31 13 39 14 49 2 30 -7 -11 -13 -7 -24 20 -9 19 -16
30 -16 26z"/>
<path d="M7935 6709 c-4 -6 -5 -12 -2 -15 2 -3 7 2 10 11 7 17 1 20 -8 4z"/>
<path d="M6634 6660 c1 -8 10 -16 21 -17 15 -1 15 0 3 3 -9 3 -19 11 -21 17
-2 7 -3 5 -3 -3z"/>
<path d="M4910 6640 c0 -11 -5 -20 -12 -20 -6 0 -8 -3 -4 -7 4 -5 14 1 22 11
16 23 18 36 4 36 -5 0 -10 -9 -10 -20z"/>
<path d="M280 6507 c-47 -24 -50 -45 -48 -279 3 -211 4 -218 26 -240 l23 -23
747 -2 c467 -2 753 1 762 7 13 9 13 10 0 11 -8 0 -4 5 10 9 l25 8 -25 1 c-20
1 -22 3 -10 11 13 9 13 10 0 11 -8 0 -4 5 10 9 l25 8 -25 1 c-20 1 -22 3 -10
11 13 9 13 10 0 11 -8 0 -4 5 10 9 l25 8 -25 1 c-20 1 -22 3 -10 11 13 9 13
10 0 11 -8 0 -4 5 10 9 l25 8 -25 1 c-20 1 -22 3 -10 11 13 9 13 10 0 11 -8 0
-4 5 10 9 l25 8 -25 1 c-20 1 -22 3 -10 11 13 9 13 10 0 11 -8 0 -4 5 10 9
l25 8 -25 1 c-20 1 -22 3 -10 11 13 9 13 10 0 11 -8 0 -4 5 10 9 l25 8 -25 1
c-20 1 -22 3 -10 11 13 9 13 10 0 11 -8 0 -4 5 10 9 l25 8 -25 1 c-20 1 -22 3
-10 11 13 9 13 10 0 11 -8 0 -4 5 10 9 l25 8 -25 1 c-20 1 -22 3 -10 11 13 9
13 10 0 11 -8 0 -4 5 10 9 l25 8 -25 1 c-20 1 -22 3 -10 11 13 9 13 10 0 11
-8 0 -4 5 10 9 l25 8 -25 1 c-20 1 -22 3 -10 11 13 9 13 10 0 11 -8 0 -4 5 10
9 l25 8 -25 1 c-20 1 -22 3 -10 11 13 9 13 10 0 11 -8 0 -4 5 10 9 l25 8 -25
1 c-20 1 -22 3 -10 11 13 9 13 10 0 11 -8 0 -4 5 10 9 14 4 -317 8 -735 9
-591 1 -766 -2 -785 -12z m284 -193 l47 -36 -3 -66 -3 -67 -95 0 -95 0 -3 65
-3 65 43 37 c24 21 48 38 54 38 6 0 32 -16 58 -36z m226 -39 c0 -18 5 -25 20
-25 15 0 20 7 20 25 0 16 6 25 15 25 12 0 15 -13 15 -60 0 -47 -3 -60 -15 -60
-9 0 -15 9 -15 25 0 18 -5 25 -20 25 -15 0 -20 -7 -20 -25 0 -16 -6 -25 -15
-25 -12 0 -15 13 -15 60 0 47 3 60 15 60 9 0 15 -9 15 -25z m168 -47 c2 -29
-1 -39 -17 -48 -42 -22 -84 27 -61 70 9 16 19 20 43 18 29 -3 32 -7 35 -40z
m142 -4 c0 -51 -17 -60 -22 -11 -2 17 -7 32 -13 32 -5 0 -11 -15 -13 -32 -2
-18 -7 -33 -12 -33 -5 0 -10 15 -12 33 -2 17 -7 32 -13 32 -5 0 -11 -15 -13
-32 -5 -53 -32 -43 -32 12 l0 44 65 0 65 -1 0 -44z m98 4 c4 -48 -26 -68 -64
-43 -26 17 -30 35 -13 66 8 15 19 19 42 17 29 -3 32 -7 35 -40z"/>
<path d="M467 6289 c-35 -29 -38 -35 -35 -78 l3 -46 75 0 75 0 2 50 c2 45 -1
52 -26 72 -45 35 -53 35 -94 2z m93 -99 c0 -5 -22 -10 -50 -10 -27 0 -50 5
-50 10 0 6 23 10 50 10 28 0 50 -4 50 -10z"/>
<path d="M903 6234 c-8 -22 15 -44 26 -25 10 16 4 41 -10 41 -5 0 -12 -7 -16
-16z"/>
<path d="M4043 5975 c-219 -40 -399 -212 -454 -435 -29 -120 -10 -279 47 -392
l24 -48 86 57 c60 40 84 62 80 72 -2 9 -12 36 -22 61 -11 28 -18 74 -18 125
-1 69 3 89 30 145 53 112 157 192 271 208 l48 7 3 108 c2 82 0 107 -10 106 -7
0 -45 -7 -85 -14z"/>
<path d="M4162 5884 l3 -109 48 -7 c103 -14 202 -87 258 -190 33 -60 34 -67
34 -168 0 -101 -1 -108 -34 -168 -77 -141 -222 -215 -376 -191 -81 13 -157 52
-202 103 l-38 43 -87 -59 c-102 -68 -102 -64 -8 -151 104 -97 256 -157 395
-157 68 0 189 31 262 68 231 117 353 377 298 637 -24 113 -67 189 -159 280
-107 106 -199 152 -344 170 l-53 7 3 -108z"/>
<path d="M5000 5865 l0 -65 34 0 c19 0 41 7 50 15 16 16 12 45 -7 45 -7 0 -7
4 1 12 31 31 8 58 -49 58 l-29 0 0 -65z m68 28 c-2 -10 -12 -18 -23 -18 -11 0
-21 8 -23 18 -3 13 3 17 23 17 20 0 26 -4 23 -17z m5 -47 c7 -19 -1 -26 -30
-26 -16 0 -23 6 -23 20 0 14 7 20 24 20 13 0 26 -6 29 -14z"/>
<path d="M5330 5865 c0 -37 4 -65 10 -65 6 0 10 9 10 20 0 26 14 25 33 -2 8
-13 18 -20 23 -16 4 5 0 16 -9 26 -21 23 -21 36 -2 52 9 7 13 15 10 18 -3 3
-16 -5 -30 -18 l-25 -23 0 36 c0 20 -4 37 -10 37 -6 0 -10 -28 -10 -65z"/>
<path d="M5509 5903 c-31 -78 -37 -103 -28 -103 5 0 12 7 15 15 4 8 18 15 34
15 16 0 30 -7 34 -15 3 -8 10 -15 15 -15 14 0 -31 122 -46 128 -7 2 -18 -9
-24 -25z m31 -12 c0 -5 3 -16 6 -25 4 -12 0 -16 -16 -16 -16 0 -20 4 -16 16 3
9 6 20 6 25 0 5 5 9 10 9 6 0 10 -4 10 -9z"/>
<path d="M6420 5915 c-7 -9 -9 -19 -5 -23 4 -4 10 -1 12 6 5 14 39 16 48 2 3
-5 -10 -27 -30 -48 -19 -22 -35 -42 -35 -46 0 -3 20 -6 45 -6 25 0 45 5 45 10
0 6 -14 10 -31 10 l-31 0 31 35 c26 29 29 39 21 55 -13 24 -52 26 -70 5z"/>
<path d="M6147 5906 c-3 -8 -4 -22 -2 -33 2 -10 6 -30 10 -45 5 -26 35 -41 35
-18 0 6 -4 10 -10 10 -15 0 -12 58 2 62 9 3 8 9 -4 21 -20 21 -24 21 -31 3z"/>
<path d="M5133 5893 c-24 -9 -13 -23 12 -17 15 4 25 2 25 -5 0 -6 -6 -11 -13
-11 -24 0 -48 -25 -42 -42 5 -12 18 -16 47 -15 l40 1 -5 40 c-7 48 -27 64 -64
49z m29 -75 c-11 -11 -32 -3 -32 12 0 12 34 18 39 7 2 -5 -1 -13 -7 -19z"/>
<path d="M5220 5849 c0 -57 17 -66 22 -12 2 27 8 39 21 41 14 3 17 -4 17 -37
0 -23 5 -41 10 -41 11 0 14 89 3 91 -5 1 -23 2 -40 4 l-33 3 0 -49z"/>
<path d="M5614 5875 c-15 -23 -15 -27 0 -50 18 -28 47 -32 66 -10 11 13 8 14
-17 9 -33 -6 -48 12 -36 42 4 12 14 14 37 10 29 -5 30 -5 12 9 -28 21 -43 19
-62 -10z"/>
<path d="M5726 5884 c-34 -34 -10 -89 35 -82 34 5 36 27 2 25 -24 -2 -28 2
-28 23 0 21 4 25 28 23 29 -2 37 11 11 21 -24 9 -31 8 -48 -10z"/>
<path d="M5824 5875 c-15 -23 -15 -27 0 -50 20 -31 50 -32 70 -4 16 23 12 47
-12 67 -24 18 -40 15 -58 -13z m56 -25 c0 -23 -5 -30 -19 -30 -10 0 -21 7 -25
15 -8 23 4 45 25 45 14 0 19 -7 19 -30z"/>
<path d="M5932 5853 l3 -48 38 -2 37 -1 0 49 c0 57 -17 66 -22 12 -2 -27 -8
-39 -20 -41 -14 -3 -18 4 -18 32 0 19 -5 38 -11 41 -7 5 -9 -9 -7 -42z"/>
<path d="M6040 5849 c0 -27 5 -49 10 -49 6 0 10 18 10 40 0 33 3 40 20 40 17
0 20 -7 20 -40 0 -22 5 -40 10 -40 11 0 14 89 3 91 -5 1 -23 2 -40 4 l-33 3 0
-49z"/>
<path d="M6223 5893 c-23 -9 -15 -42 12 -49 14 -3 25 -9 25 -13 0 -16 -14 -20
-32 -10 -16 9 -19 8 -16 -3 3 -7 18 -13 34 -13 40 0 48 39 10 49 -15 3 -26 11
-26 17 0 7 10 9 25 5 27 -7 35 8 9 18 -18 7 -23 7 -41 -1z"/>
<path d="M6310 5880 c0 -5 4 -10 9 -10 6 0 13 5 16 10 3 6 -1 10 -9 10 -9 0
-16 -4 -16 -10z"/>
<path d="M6310 5810 c0 -5 4 -10 9 -10 6 0 13 5 16 10 3 6 -1 10 -9 10 -9 0
-16 -4 -16 -10z"/>
<path d="M446 5599 c-75 -59 -32 -179 65 -179 21 0 40 3 42 8 3 4 -14 6 -37 4
-34 -3 -46 1 -69 24 -47 47 -34 123 26 149 18 8 25 14 16 15 -9 0 -28 -9 -43
-21z"/>
<path d="M540 5609 c56 -22 78 -98 43 -149 -16 -24 -16 -24 0 -11 24 19 36 70
24 104 -10 31 -52 67 -76 66 -9 0 -6 -4 9 -10z"/>
<path d="M490 5570 c-12 -8 -10 -10 11 -10 14 0 30 -5 37 -12 9 -9 12 -9 12 0
0 6 -9 16 -19 22 -24 12 -22 12 -41 0z"/>
<path d="M767 5573 c-11 -10 -8 -113 3 -113 6 0 10 19 11 43 l0 42 20 -43 c10
-24 23 -41 29 -37 5 3 10 10 10 15 0 5 5 21 12 37 l12 28 6 -45 c7 -44 7 -43
8 18 2 74 -12 79 -38 13 l-16 -43 -18 46 c-17 45 -26 53 -39 39z"/>
<path d="M1050 5520 c0 -59 0 -60 29 -60 34 0 56 23 46 47 -5 10 -7 28 -6 39
1 15 -5 23 -21 28 -45 12 -48 9 -48 -54z m58 23 c2 -8 -6 -13 -22 -13 -17 0
-26 5 -26 16 0 19 41 16 48 -3z m2 -48 c0 -9 -9 -15 -25 -15 -16 0 -25 6 -25
15 0 9 9 15 25 15 16 0 25 -6 25 -15z"/>
<path d="M1340 5521 c0 -34 4 -61 10 -61 6 0 10 10 11 23 l0 22 16 -22 c22
-32 39 -29 18 3 -16 24 -16 27 1 45 9 10 12 19 6 19 -6 0 -18 -10 -26 -22 -16
-22 -16 -22 -16 9 0 18 -4 35 -10 38 -6 4 -10 -17 -10 -54z"/>
<path d="M470 5540 c0 -4 18 -17 40 -28 22 -11 40 -16 40 -12 0 4 -18 17 -40
28 -22 11 -40 16 -40 12z"/>
<path d="M910 5543 c0 -6 7 -28 16 -49 15 -35 15 -39 -2 -51 -16 -12 -16 -13
-1 -13 9 0 21 9 27 21 21 37 39 99 30 99 -4 0 -14 -17 -21 -37 l-12 -38 -11
32 c-12 33 -26 53 -26 36z"/>
<path d="M1165 5540 c-3 -5 3 -10 14 -10 28 0 27 -18 -1 -22 -15 -2 -23 -10
-23 -23 0 -16 7 -20 33 -22 30 -1 32 1 32 31 0 45 -37 76 -55 46z m35 -49 c0
-14 -18 -23 -30 -16 -6 4 -8 11 -5 16 8 12 35 12 35 0z"/>
<path d="M1240 5504 c0 -24 5 -44 10 -44 6 0 10 16 10 35 0 28 4 35 20 35 16
0 20 -7 20 -35 0 -19 5 -35 10 -35 13 0 13 50 0 70 -5 8 -23 15 -40 16 -29 2
-30 0 -30 -42z"/>
<path d="M1442 5538 c-18 -18 -15 -27 13 -38 35 -13 33 -34 -2 -25 -21 5 -25
4 -17 -5 7 -6 22 -10 35 -8 32 4 33 42 2 46 -29 4 -30 22 -2 22 11 0 17 5 14
10 -8 14 -28 13 -43 -2z"/>
<path d="M470 5492 c0 -18 40 -36 53 -23 8 8 5 11 -9 11 -11 0 -25 5 -32 12
-9 9 -12 9 -12 0z"/>
<path d="M5012 5453 c12 -3 18 -18 21 -51 l3 -47 2 47 c2 35 6 48 20 51 9 3
-1 5 -23 5 -22 0 -32 -2 -23 -5z"/>
<path d="M5293 5410 c0 -30 2 -43 4 -27 2 15 2 39 0 55 -2 15 -4 2 -4 -28z"/>
<path d="M5370 5440 c-15 -28 -5 -67 19 -75 21 -6 51 3 51 16 0 5 -9 4 -21 -3
-17 -11 -22 -10 -35 6 -18 25 -18 40 2 57 13 10 19 10 36 0 16 -10 19 -10 16
1 -8 23 -55 22 -68 -2z"/>
<path d="M5910 5410 c0 -45 2 -50 23 -50 34 0 51 15 42 36 -5 11 -7 23 -6 27
1 5 -3 6 -9 2 -8 -5 -8 -11 0 -20 15 -18 5 -35 -20 -35 -15 0 -19 7 -18 41 0
37 2 40 24 36 13 -2 21 0 18 4 -3 5 -16 9 -30 9 -22 0 -24 -4 -24 -50z"/>
<path d="M6083 5410 c0 -30 2 -43 4 -27 2 15 2 39 0 55 -2 15 -4 2 -4 -28z"/>
<path d="M5169 5446 c-7 -7 2 -86 10 -86 4 0 5 17 3 38 -4 48 -6 54 -13 48z"/>
<path d="M5829 5446 c-7 -7 2 -86 10 -86 4 0 5 17 3 38 -4 48 -6 54 -13 48z"/>
<path d="M5084 5416 c-11 -29 1 -51 26 -51 19 0 26 6 28 24 2 13 0 27 -5 32
-5 5 -9 -3 -8 -19 0 -17 -5 -27 -15 -27 -10 0 -15 10 -15 28 1 30 -3 34 -11
13z"/>
<path d="M5254 5402 c1 -19 -5 -28 -18 -30 -14 -3 -17 0 -13 12 4 9 2 16 -4
16 -6 0 -9 -8 -7 -17 2 -12 13 -18 31 -19 23 -1 27 3 27 27 0 15 -4 30 -9 33
-4 3 -8 -7 -7 -22z"/>
<path d="M5474 5401 c0 -21 7 -36 16 -38 10 -3 11 -2 3 4 -6 4 -13 22 -16 38
-4 27 -5 27 -3 -4z"/>
<path d="M5518 5400 c-3 -17 -1 -33 4 -36 4 -3 8 11 8 30 0 44 -6 47 -12 6z"/>
<path d="M5550 5395 c0 -19 2 -35 4 -35 2 0 6 16 8 35 2 19 0 35 -4 35 -4 0
-8 -16 -8 -35z"/>
<path d="M5610 5395 c0 -19 2 -35 4 -35 2 0 6 16 8 35 2 19 0 35 -4 35 -4 0
-8 -16 -8 -35z"/>
<path d="M5660 5400 c0 -33 24 -50 42 -32 8 8 4 9 -12 5 -21 -6 -22 -3 -18 25
2 18 1 32 -4 32 -4 0 -8 -14 -8 -30z"/>
<path d="M5706 5417 c3 -10 9 -15 12 -12 3 3 0 11 -7 18 -10 9 -11 8 -5 -6z"/>
<path d="M5740 5395 c0 -19 2 -35 4 -35 2 0 6 16 8 35 2 19 0 35 -4 35 -4 0
-8 -16 -8 -35z"/>
<path d="M5789 5392 c5 -34 6 -35 9 -8 2 16 0 32 -5 37 -5 5 -7 -7 -4 -29z"/>
<path d="M6044 5402 c1 -19 -5 -28 -18 -30 -14 -3 -17 0 -13 12 4 9 2 16 -4
16 -6 0 -9 -8 -7 -17 2 -12 13 -18 31 -19 23 -1 27 3 27 27 0 15 -4 30 -9 33
-4 3 -8 -7 -7 -22z"/>
<path d="M6158 5395 c2 -19 6 -35 8 -35 2 0 4 16 4 35 0 19 -4 35 -8 35 -4 0
-6 -16 -4 -35z"/>
<path d="M6200 5419 c0 -5 5 -7 10 -4 6 3 10 8 10 11 0 2 -4 4 -10 4 -5 0 -10
-5 -10 -11z"/>
<path d="M6235 5420 c3 -5 8 -10 11 -10 2 0 4 5 4 10 0 6 -5 10 -11 10 -5 0
-7 -4 -4 -10z"/>
<path d="M6284 5416 c-15 -39 22 -74 49 -47 9 9 5 11 -13 9 -21 -3 -25 1 -25
25 1 30 -3 34 -11 13z"/>
<path d="M6364 5416 c-14 -38 22 -74 48 -48 6 6 0 8 -18 4 -25 -5 -26 -3 -22
27 5 33 1 41 -8 17z"/>
<path d="M6406 5417 c3 -10 9 -15 12 -12 3 3 0 11 -7 18 -10 9 -11 8 -5 -6z"/>
<path d="M6115 5390 c-9 -14 3 -30 23 -30 15 1 15 2 -2 11 -15 9 -16 13 -5 20
9 6 10 9 2 9 -6 0 -15 -4 -18 -10z"/>
<path d="M5053 5135 c-12 -8 -25 -30 -28 -48 -4 -17 -13 -35 -19 -40 -7 -5 -6
-11 7 -18 21 -12 23 -57 2 -65 -8 -4 -15 -12 -15 -20 0 -18 130 -20 148 -2 17
17 15 38 -3 38 -8 0 -15 -4 -15 -10 0 -5 -17 -10 -38 -10 -38 0 -38 0 -34 35
4 31 8 35 33 35 16 0 29 5 29 10 0 6 -14 10 -31 10 -28 0 -30 2 -27 33 3 36
35 49 58 22 14 -17 40 -20 40 -5 0 18 -40 50 -63 50 -12 0 -32 -7 -44 -15z"/>
<path d="M5222 5134 c-24 -17 -30 -44 -8 -44 7 0 19 7 26 15 16 19 44 19 59 1
17 -20 3 -46 -25 -46 -30 0 -32 -27 -3 -32 27 -4 44 -30 36 -52 -8 -21 -63
-21 -75 0 -5 9 -18 14 -28 12 -17 -3 -16 -6 9 -32 25 -25 34 -28 70 -23 64 9
88 57 47 95 -18 17 -19 20 -5 32 37 31 1 90 -55 90 -14 0 -36 -7 -48 -16z"/>
<path d="M5412 5134 c-24 -17 -30 -54 -8 -54 7 0 16 9 19 21 4 16 12 20 34 17
22 -2 29 -9 31 -30 3 -21 -7 -37 -47 -74 -28 -27 -51 -56 -51 -66 0 -16 9 -18
70 -18 56 0 70 3 70 15 0 11 -12 15 -47 15 l-47 0 36 38 c20 20 41 48 48 60
32 64 -46 120 -108 76z"/>
<path d="M5613 5138 c-41 -20 -57 -113 -28 -167 25 -49 81 -56 122 -15 23 23
25 31 21 91 -3 54 -8 69 -27 84 -26 21 -55 23 -88 7z m67 -33 c18 -22 22 -87
8 -115 -15 -29 -42 -37 -63 -20 -18 15 -20 101 -5 131 13 23 43 25 60 4z"/>
<path d="M5879 5131 c-18 -14 -23 -30 -26 -77 -4 -68 10 -104 48 -118 62 -21
109 23 109 104 0 92 -70 141 -131 91z m79 -23 c17 -17 15 -123 -3 -138 -37
-31 -79 18 -71 83 7 60 43 86 74 55z"/>
<path d="M6083 5135 c-31 -22 -47 -85 -33 -135 19 -70 85 -93 131 -44 20 21
24 36 24 86 0 53 -3 62 -28 84 -32 28 -63 31 -94 9z m77 -34 c5 -11 10 -38 10
-61 0 -54 -15 -80 -46 -80 -28 0 -44 30 -44 83 0 63 56 103 80 58z"/>
<path d="M5776 4948 c-3 -7 -7 -28 -10 -45 -7 -42 19 -46 28 -5 4 15 9 35 12
45 4 11 0 17 -11 17 -8 0 -17 -6 -19 -12z"/>
<path d="M552 4901 c-8 -4 -13 -11 -13 -15 1 -3 1 -44 1 -91 0 -71 -2 -83 -15
-79 -8 4 -22 1 -31 -6 -11 -10 -18 -10 -26 -2 -7 7 -17 12 -22 12 -6 0 0 -7
12 -16 13 -9 27 -12 35 -7 6 4 23 8 37 8 23 0 25 4 28 48 2 26 6 47 11 47 4 0
16 6 26 14 18 13 18 14 -8 9 -25 -5 -27 -3 -27 31 0 39 21 50 39 19 10 -17 10
-17 11 -1 0 10 -9 22 -19 28 -23 12 -22 12 -39 1z"/>
<path d="M409 4873 c-12 -33 -8 -165 6 -170 6 -2 10 35 10 97 0 55 -1 100 -3
100 -1 0 -7 -12 -13 -27z"/>
<path d="M760 4850 c0 -5 7 -10 15 -10 11 0 15 -12 15 -50 0 -27 5 -50 10 -50
6 0 10 23 10 50 0 43 3 50 20 50 11 0 20 5 20 10 0 6 -20 10 -45 10 -25 0 -45
-4 -45 -10z"/>
<path d="M1440 4850 c0 -5 5 -10 10 -10 6 0 10 5 10 10 0 6 -4 10 -10 10 -5 0
-10 -4 -10 -10z"/>
<path d="M1720 4801 c0 -34 4 -61 10 -61 6 0 10 11 10 25 0 20 5 25 25 25 20
0 25 -5 25 -25 0 -14 5 -25 10 -25 6 0 10 27 10 61 0 37 -4 58 -10 54 -5 -3
-10 -15 -10 -26 0 -14 -7 -19 -25 -19 -18 0 -25 5 -25 19 0 11 -4 23 -10 26
-6 4 -10 -17 -10 -54z"/>
<path d="M1388 4838 c-8 -19 5 -91 17 -95 14 -4 12 84 -2 98 -7 7 -12 7 -15
-3z"/>
<path d="M1967 4837 c-2 -7 -2 -30 2 -52 5 -29 12 -41 26 -43 15 -2 17 -1 6 6
-9 7 -12 21 -9 43 6 37 1 59 -12 59 -4 0 -10 -6 -13 -13z"/>
<path d="M860 4783 c0 -24 5 -43 10 -43 6 0 10 16 10 35 0 26 4 35 17 35 22 0
8 13 -17 15 -17 1 -20 -5 -20 -42z"/>
<path d="M930 4820 c-12 -8 -9 -10 13 -10 15 0 27 -4 27 -10 0 -5 -8 -10 -19
-10 -23 0 -42 -22 -33 -37 4 -7 22 -11 40 -11 29 1 32 4 32 34 0 23 -6 37 -19
44 -24 12 -22 12 -41 0z m40 -49 c0 -14 -18 -23 -30 -16 -6 4 -8 11 -5 16 8
12 35 12 35 0z"/>
<path d="M1010 4784 c0 -24 5 -44 10 -44 6 0 10 16 10 35 0 28 4 35 20 35 16
0 20 -7 20 -35 0 -19 5 -35 10 -35 13 0 13 50 0 70 -5 8 -23 15 -40 16 -29 2
-30 0 -30 -42z"/>
<path d="M1123 4823 c-22 -8 -14 -33 13 -43 29 -12 22 -34 -8 -24 -14 4 -18 2
-14 -5 10 -15 41 -14 55 2 12 15 -3 37 -26 37 -7 0 -13 5 -13 10 0 6 10 10 23
10 18 0 19 2 7 10 -16 11 -19 11 -37 3z"/>
<path d="M1210 4820 c-12 -8 -9 -10 13 -10 15 0 27 -4 27 -10 0 -5 -8 -10 -19
-10 -23 0 -42 -22 -33 -37 4 -7 22 -11 40 -11 29 1 32 4 32 34 0 23 -6 37 -19
44 -24 12 -22 12 -41 0z m40 -49 c0 -14 -18 -23 -30 -16 -6 4 -8 11 -5 16 8
12 35 12 35 0z"/>
<path d="M1308 4819 c-11 -6 -18 -22 -18 -39 0 -23 5 -31 24 -36 27 -6 46 1
46 18 0 6 -6 6 -16 -2 -12 -11 -18 -10 -31 3 -23 23 -9 51 22 43 27 -7 35 8 9
18 -19 7 -15 8 -36 -5z"/>
<path d="M1440 4786 c0 -25 5 -46 10 -46 6 0 10 18 10 39 0 22 -4 43 -10 46
-6 4 -10 -12 -10 -39z"/>
<path d="M1498 4819 c-21 -12 -24 -49 -6 -67 18 -18 46 -14 58 7 14 27 13 37
-6 55 -18 19 -23 19 -46 5z m40 -36 c-2 -17 -9 -28 -18 -28 -9 0 -16 11 -18
28 -3 22 1 27 18 27 17 0 21 -5 18 -27z"/>
<path d="M1580 4783 c0 -24 5 -43 10 -43 6 0 10 16 10 36 0 49 32 44 41 -6 l6
-35 2 43 c0 23 -2 42 -6 43 -64 7 -63 7 -63 -38z"/>
<path d="M1843 4785 c0 -27 2 -38 4 -22 2 15 2 37 0 50 -2 12 -4 0 -4 -28z"/>
<path d="M1893 4823 c-22 -8 -14 -33 13 -43 29 -12 22 -34 -8 -24 -14 4 -18 2
-14 -5 10 -15 41 -14 55 2 12 15 -3 37 -26 37 -7 0 -13 5 -13 10 0 6 10 10 23
10 18 0 19 2 7 10 -16 11 -19 11 -37 3z"/>
<path d="M2038 4819 c-21 -12 -24 -49 -6 -67 18 -18 46 -14 58 7 14 27 13 37
-6 55 -18 19 -23 19 -46 5z m40 -36 c-2 -17 -9 -28 -18 -28 -9 0 -16 11 -18
28 -3 22 1 27 18 27 17 0 21 -5 18 -27z"/>
<path d="M2120 4783 c0 -24 5 -43 10 -43 6 0 10 16 10 35 0 26 4 35 17 35 22
0 8 13 -17 15 -17 1 -20 -5 -20 -42z"/>
<path d="M2180 4828 c0 -4 7 -26 16 -48 13 -32 14 -43 4 -55 -10 -12 -10 -15
2 -15 15 0 63 108 53 118 -3 3 -11 -9 -17 -26 -13 -32 -28 -43 -28 -19 0 14
-29 58 -30 45z"/>
<path d="M446 4159 c-75 -59 -32 -179 65 -179 21 0 40 3 42 8 3 4 -14 6 -37 4
-34 -3 -46 1 -69 24 -47 47 -34 123 26 149 18 8 25 14 16 15 -9 0 -28 -9 -43
-21z"/>
<path d="M579 4153 c-22 -25 -22 -26 -1 -9 12 11 22 14 22 8 0 -7 5 -12 10
-12 6 0 10 9 10 20 0 27 -12 25 -41 -7z"/>
<path d="M760 4130 c0 -5 7 -10 15 -10 11 0 15 -12 15 -50 0 -27 5 -50 10 -50
6 0 10 23 10 50 0 43 3 50 20 50 11 0 20 5 20 10 0 6 -20 10 -45 10 -25 0 -45
-4 -45 -10z"/>
<path d="M1206 4119 c-11 -13 -14 -24 -8 -28 6 -3 12 -22 15 -41 l4 -35 1 37
c1 20 8 39 15 42 9 5 9 7 -1 12 -10 5 -10 9 -1 20 6 8 7 14 2 14 -5 0 -17 -10
-27 -21z"/>
<path d="M1461 4078 c1 -35 4 -51 6 -35 3 21 10 27 31 28 l27 1 -25 7 c-14 4
-26 15 -28 24 -3 13 4 17 27 17 17 0 31 5 31 10 0 6 -16 10 -35 10 l-35 0 1
-62z"/>
<path d="M1800 4114 c0 -22 -2 -25 -15 -14 -23 19 -47 -6 -43 -44 3 -28 6 -31
41 -33 l37 -1 0 53 c0 30 -4 57 -10 60 -6 4 -10 -5 -10 -21z m-4 -39 c4 -8 0
-22 -7 -31 -11 -13 -14 -13 -27 0 -17 17 -9 46 13 46 9 0 18 -7 21 -15z"/>
<path d="M5140 4114 c0 -17 22 -14 28 4 2 7 -3 12 -12 12 -9 0 -16 -7 -16 -16z"/>
<path d="M487 4114 c-15 -15 -6 -34 18 -40 14 -3 25 -10 25 -15 0 -12 -37 -11
-43 1 -3 6 -4 5 -3 -2 2 -7 14 -13 27 -13 31 0 32 27 2 40 -13 5 -23 13 -23
17 0 12 38 10 43 -2 3 -6 4 -5 3 2 -3 14 -38 23 -49 12z"/>
<path d="M3320 4035 c0 -69 3 -85 15 -85 10 0 15 11 15 35 0 25 5 35 15 35 9
0 23 -16 32 -35 9 -19 23 -35 30 -35 17 0 16 5 -2 39 -13 26 -13 30 0 41 17
15 19 43 5 71 -8 15 -22 19 -60 19 l-50 0 0 -85z m85 35 c0 -20 -6 -26 -27
-28 -25 -3 -28 0 -28 28 0 28 3 31 28 28 21 -2 27 -8 27 -28z"/>
<path d="M860 4063 c0 -24 5 -43 10 -43 6 0 10 16 10 35 0 26 4 35 17 35 22 0
8 13 -17 15 -17 1 -20 -5 -20 -42z"/>
<path d="M930 4100 c-12 -8 -9 -10 13 -10 15 0 27 -4 27 -10 0 -5 -8 -10 -19
-10 -23 0 -42 -22 -33 -37 4 -7 22 -11 40 -11 29 1 32 4 32 34 0 23 -6 37 -19
44 -24 12 -22 12 -41 0z m40 -49 c0 -14 -18 -23 -30 -16 -6 4 -8 11 -5 16 8
12 35 12 35 0z"/>
<path d="M1010 4064 c0 -24 5 -44 10 -44 6 0 10 16 10 35 0 28 4 35 20 35 16
0 20 -7 20 -35 0 -19 5 -35 10 -35 13 0 13 50 0 70 -5 8 -23 15 -40 16 -29 2
-30 0 -30 -42z"/>
<path d="M1123 4103 c-22 -8 -14 -33 13 -43 29 -12 22 -34 -8 -24 -14 4 -18 2
-14 -5 10 -15 41 -14 55 2 12 15 -3 37 -26 37 -7 0 -13 5 -13 10 0 6 10 10 23
10 18 0 19 2 7 10 -16 11 -19 11 -37 3z"/>
<path d="M1274 4102 c-18 -12 -24 -42 -14 -63 11 -20 54 -26 65 -10 3 6 -7 9
-21 8 -15 -1 -29 4 -31 11 -3 8 6 12 26 12 36 0 42 23 12 40 -23 12 -23 12
-37 2z m36 -22 c0 -5 -9 -10 -20 -10 -11 0 -20 5 -20 10 0 6 9 10 20 10 11 0
20 -4 20 -10z"/>
<path d="M1350 4064 c0 -24 5 -44 10 -44 6 0 10 16 10 35 0 24 5 35 15 35 26
0 16 15 -10 16 -23 2 -25 -1 -25 -42z"/>
<path d="M1546 4096 c-5 -10 -5 -30 0 -45 7 -20 17 -26 42 -28 31 -1 32 -1 32
43 0 24 -4 44 -10 44 -5 0 -10 -16 -10 -35 0 -28 -4 -35 -19 -35 -16 0 -21 8
-23 38 -3 30 -6 33 -12 18z"/>
<path d="M1640 4064 c0 -24 5 -44 10 -44 6 0 10 16 10 35 0 28 4 35 20 35 16
0 20 -7 20 -35 0 -19 5 -35 10 -35 13 0 13 50 0 70 -5 8 -23 15 -40 16 -29 2
-30 0 -30 -42z"/>
<path d="M1853 4103 c-22 -8 -14 -33 13 -43 29 -12 22 -34 -8 -24 -14 4 -18 2
-14 -5 10 -15 41 -14 55 2 12 15 -3 37 -26 37 -7 0 -13 5 -13 10 0 6 10 10 23
10 18 0 19 2 7 10 -16 11 -19 11 -37 3z"/>
<path d="M4040 4096 c0 -8 -6 -17 -12 -20 -10 -5 -10 -7 0 -12 7 -3 12 -24 12
-48 0 -23 5 -47 12 -54 15 -15 48 -16 48 -2 0 6 -7 10 -15 10 -11 0 -15 12
-15 45 0 33 4 45 15 45 8 0 15 5 15 10 0 6 -7 10 -15 10 -8 0 -15 7 -15 15 0
8 -7 15 -15 15 -8 0 -15 -6 -15 -14z"/>
<path d="M4190 4096 c0 -8 -6 -17 -12 -19 -10 -4 -10 -7 -1 -14 6 -5 13 -31
15 -58 3 -43 6 -50 26 -53 12 -2 22 1 22 7 0 6 -4 11 -10 11 -15 0 -12 87 3
94 10 5 10 7 0 12 -7 3 -13 12 -13 20 0 8 -7 14 -15 14 -8 0 -15 -6 -15 -14z"/>
<path d="M5060 4096 c0 -8 -6 -17 -12 -20 -10 -5 -10 -7 0 -12 7 -3 12 -25 12
-54 0 -49 9 -60 48 -60 16 1 15 2 0 14 -21 16 -25 91 -5 100 10 5 10 7 0 12
-7 3 -13 12 -13 20 0 8 -7 14 -15 14 -8 0 -15 -6 -15 -14z"/>
<path d="M600 4062 c0 -10 -7 -29 -16 -42 l-16 -25 21 24 c19 21 29 61 16 61
-3 0 -5 -8 -5 -18z"/>
<path d="M3480 4060 c-52 -52 16 -140 79 -101 7 5 11 14 7 20 -5 8 -12 7 -25
-1 -22 -14 -51 -4 -51 17 0 11 11 15 45 15 37 0 45 3 45 18 0 25 -31 52 -58
52 -12 0 -31 -9 -42 -20z m68 -17 c2 -9 -7 -13 -27 -13 -30 0 -39 9 -24 24 11
10 46 3 51 -11z"/>
<path d="M3633 4072 c-32 -20 -32 -94 0 -114 19 -12 51 -9 73 6 26 20 10 32
-21 16 -30 -16 -55 0 -55 35 0 35 25 51 55 35 31 -16 47 -4 21 16 -22 15 -54
18 -73 6z"/>
<path d="M3766 4064 c-25 -25 -24 -82 2 -101 22 -18 67 -16 83 3 12 15 10 16
-19 9 -21 -4 -38 -2 -47 5 -26 21 -17 30 30 30 38 0 45 3 45 19 0 27 -26 51
-55 51 -13 0 -31 -7 -39 -16z m64 -19 c11 -13 7 -15 -25 -15 -32 0 -36 2 -25
15 7 8 18 15 25 15 7 0 18 -7 25 -15z"/>
<path d="M3890 4015 c0 -50 3 -65 14 -65 11 0 16 15 18 53 3 44 6 52 23 52 17
0 20 -8 23 -52 2 -39 7 -53 18 -53 12 0 14 12 12 56 -3 66 -23 88 -58 66 -12
-7 -20 -8 -20 -2 0 5 -7 10 -15 10 -12 0 -15 -14 -15 -65z"/>
<path d="M4270 4015 c0 -51 3 -65 15 -65 11 0 15 12 15 51 0 42 3 52 20 56 11
3 20 9 20 14 0 13 -24 11 -38 -3 -9 -9 -12 -9 -12 0 0 7 -4 12 -10 12 -6 0
-10 -28 -10 -65z"/>
<path d="M4369 4064 c-11 -14 -9 -15 24 -9 30 6 37 4 37 -8 0 -9 -12 -18 -29
-22 -41 -9 -55 -28 -41 -54 12 -23 49 -28 68 -9 9 9 12 9 12 0 0 -7 5 -12 10
-12 14 0 12 104 -2 118 -17 17 -63 15 -79 -4z m71 -62 c0 -14 -23 -32 -42 -32
-18 0 -25 20 -11 33 9 10 53 9 53 -1z"/>
<path d="M4500 4015 c0 -50 3 -65 14 -65 11 0 16 15 18 53 3 44 6 52 23 52 17
0 20 -8 23 -52 2 -38 7 -53 18 -53 17 0 20 80 4 111 -12 21 -50 25 -68 7 -9
-9 -12 -9 -12 0 0 7 -4 12 -10 12 -6 0 -10 -28 -10 -65z"/>
<path d="M4656 4064 c-27 -27 -15 -46 37 -59 15 -4 26 -12 24 -19 -5 -16 -38
-20 -47 -6 -4 7 -13 9 -19 5 -19 -11 7 -35 40 -35 26 0 59 22 59 39 0 13 -23
29 -53 36 -37 10 -28 31 12 27 32 -2 42 11 15 22 -27 10 -52 7 -68 -10z"/>
<path d="M4793 4073 c-28 -11 -11 -24 22 -17 51 9 48 -21 -2 -33 -70 -16 -52
-73 23 -71 l44 1 0 51 c0 29 -5 57 -12 64 -12 12 -52 15 -75 5z m55 -80 c-4
-22 -48 -31 -48 -10 0 19 10 27 32 27 13 0 18 -6 16 -17z"/>
<path d="M4926 4058 c-32 -46 -7 -108 43 -108 16 0 34 7 41 15 17 21 7 29 -18
14 -31 -19 -52 -5 -52 36 0 41 21 55 52 36 25 -15 35 -7 18 14 -19 23 -66 19
-84 -7z"/>
<path d="M5140 4015 c0 -51 3 -65 15 -65 12 0 15 14 15 65 0 51 -3 65 -15 65
-12 0 -15 -14 -15 -65z"/>
<path d="M5217 4062 c-22 -25 -21 -75 1 -95 40 -36 102 -7 102 48 0 56 -67 86
-103 47z m61 -14 c28 -28 2 -88 -33 -74 -15 5 -22 66 -8 79 10 11 28 8 41 -5z"/>
<path d="M5350 4015 c0 -50 3 -65 14 -65 11 0 16 15 18 53 3 44 6 52 23 52 17
0 20 -8 23 -52 2 -38 7 -53 18 -53 17 0 20 80 4 111 -12 21 -50 25 -68 7 -9
-9 -12 -9 -12 0 0 7 -4 12 -10 12 -6 0 -10 -28 -10 -65z"/>
<path d="M5506 4064 c-27 -27 -15 -46 37 -59 15 -4 26 -12 24 -19 -5 -16 -38
-20 -47 -6 -4 7 -13 9 -19 5 -19 -11 7 -35 40 -35 26 0 59 22 59 39 0 13 -23
29 -53 36 -37 10 -28 31 12 27 32 -2 42 11 15 22 -27 10 -52 7 -68 -10z"/>
<path d="M11658 4033 c9 -25 22 -48 28 -50 6 -2 16 13 23 34 7 21 15 44 17 51
3 6 2 12 -4 12 -5 0 -15 -19 -22 -42 l-13 -43 -14 43 c-8 23 -19 42 -24 42 -5
0 -1 -21 9 -47z"/>
<path d="M12103 4030 c0 -30 2 -43 4 -27 2 15 2 39 0 55 -2 15 -4 2 -4 -28z"/>
<path d="M12130 4030 c0 -27 5 -50 10 -50 6 0 10 23 10 50 0 28 -4 50 -10 50
-5 0 -10 -22 -10 -50z"/>
<path d="M11753 4020 c0 -25 2 -35 4 -22 2 12 2 32 0 45 -2 12 -4 2 -4 -23z"/>
<path d="M11798 4049 c-21 -12 -23 -40 -6 -57 14 -14 48 -16 48 -3 0 5 -9 7
-20 4 -11 -3 -20 0 -20 6 0 6 11 11 25 11 14 0 25 4 25 9 0 8 -28 42 -33 41
-1 0 -10 -5 -19 -11z m32 -19 c0 -5 -7 -10 -15 -10 -8 0 -15 5 -15 10 0 6 7
10 15 10 8 0 15 -4 15 -10z"/>
<path d="M11860 4054 c0 -21 22 -74 31 -74 5 0 9 9 9 19 0 11 5 23 10 26 6 3
10 -3 10 -14 0 -11 5 -23 10 -26 12 -7 33 42 27 64 -3 9 -8 1 -12 -19 l-8 -34
-12 34 -12 35 -16 -35 c-11 -25 -16 -29 -16 -15 -1 21 -21 58 -21 39z"/>
<path d="M12029 4049 c-11 -7 -9 -9 9 -9 18 0 22 -6 22 -30 0 -16 5 -30 10
-30 6 0 10 13 10 30 0 33 -27 54 -51 39z"/>
<path d="M12017 4014 c-10 -10 5 -34 22 -34 14 0 14 2 1 10 -13 9 -13 11 0 20
13 8 13 10 -1 10 -9 0 -18 -3 -22 -6z"/>
<path d="M453 3543 c15 -2 39 -2 55 0 15 2 2 4 -28 4 -30 0 -43 -2 -27 -4z"/>
<path d="M581 3538 c-1 -9 -9 -19 -18 -21 -17 -4 -17 -5 0 -6 9 0 17 -6 17
-11 0 -6 6 -5 14 2 8 7 10 15 6 18 -4 3 -10 12 -13 20 -4 12 -6 12 -6 -2z"/>
<path d="M780 3500 c-25 -25 -26 -62 -2 -83 23 -21 46 -22 67 -1 21 21 13 29
-13 13 -29 -18 -52 -5 -52 31 0 35 23 49 51 32 30 -19 36 -13 10 8 -29 25 -36
25 -61 0z"/>
<path d="M1461 3465 c-1 -60 -1 -60 29 -62 33 -2 55 25 45 56 -7 22 -32 34
-48 24 -6 -4 -2 -10 11 -14 25 -9 29 -31 8 -48 -10 -9 -16 -8 -26 3 -6 9 -9
19 -7 23 3 5 2 24 -3 43 -7 31 -8 29 -9 -25z"/>
<path d="M1750 3461 c0 -34 4 -61 10 -61 6 0 10 10 11 23 l0 22 16 -22 c22
-32 39 -29 18 3 -16 24 -16 27 1 45 9 10 12 19 6 19 -6 0 -18 -10 -26 -22 -16
-22 -16 -22 -16 9 0 18 -4 35 -10 38 -6 4 -10 -17 -10 -54z"/>
<path d="M1368 3497 c-3 -6 -3 -31 0 -54 3 -31 9 -43 20 -43 12 0 13 3 4 12
-16 16 -15 55 0 60 9 3 8 9 -4 21 -11 12 -17 13 -20 4z"/>
<path d="M427 3493 c18 -2 50 -2 70 0 21 2 7 4 -32 4 -38 0 -55 -2 -38 -4z"/>
<path d="M898 3479 c-11 -6 -18 -22 -18 -39 0 -24 5 -31 27 -36 45 -12 69 52
29 78 -14 10 -17 9 -38 -3z m40 -33 c2 -10 -1 -23 -7 -29 -15 -15 -46 16 -37
38 8 21 40 15 44 -9z"/>
<path d="M981 3440 c2 -43 2 -44 8 -10 9 50 41 55 41 6 0 -20 5 -36 10 -36 11
0 14 79 3 81 -5 1 -20 2 -35 3 -27 2 -28 0 -27 -44z"/>
<path d="M1075 3481 c-9 -9 -5 -81 4 -81 6 0 11 15 13 32 2 22 9 34 21 36 14
3 17 -4 17 -32 0 -20 5 -36 10 -36 14 0 12 67 -2 77 -14 9 -56 12 -63 4z"/>
<path d="M1188 3479 c-21 -12 -24 -49 -6 -67 15 -15 45 -16 53 -2 4 6 -3 9
-16 7 -12 -1 -24 4 -26 11 -3 8 6 12 26 12 34 0 39 11 15 34 -18 19 -23 19
-46 5z m42 -19 c0 -5 -9 -10 -20 -10 -11 0 -20 5 -20 10 0 6 9 10 20 10 11 0
20 -4 20 -10z"/>
<path d="M1284 3482 c-31 -21 -21 -82 14 -82 23 0 48 17 39 26 -3 4 -14 1 -22
-6 -20 -16 -39 -1 -33 26 3 14 12 18 33 17 28 -2 29 -1 11 12 -22 17 -27 18
-42 7z"/>
<path d="M1570 3480 c-12 -8 -9 -10 13 -10 15 0 27 -4 27 -10 0 -5 -8 -10 -19
-10 -23 0 -42 -22 -33 -37 4 -7 22 -11 40 -11 29 1 32 4 32 34 0 23 -6 37 -19
44 -24 12 -22 12 -41 0z m40 -49 c0 -14 -18 -23 -30 -16 -6 4 -8 11 -5 16 8
12 35 12 35 0z"/>
<path d="M1650 3444 c0 -24 5 -44 10 -44 6 0 10 16 10 35 0 28 4 35 20 35 16
0 20 -7 20 -35 0 -19 5 -35 10 -35 13 0 13 50 0 70 -5 8 -23 15 -40 16 -29 2
-30 0 -30 -42z"/>
<path d="M6641 3408 c1 -29 4 -43 6 -30 3 13 12 22 23 22 10 0 21 4 24 9 3 4
-6 6 -19 3 -21 -3 -25 0 -25 18 0 18 4 21 25 18 13 -3 22 -1 19 3 -3 5 -16 9
-30 9 -23 0 -24 -3 -23 -52z"/>
<path d="M6733 3410 c0 -30 2 -43 4 -27 2 15 2 39 0 55 -2 15 -4 2 -4 -28z"/>
<path d="M6930 3420 c0 -43 -23 -65 -42 -39 -8 12 -9 11 -5 -1 2 -8 16 -15 30
-16 26 -1 27 1 27 47 0 27 -2 49 -5 49 -3 0 -5 -18 -5 -40z"/>
<path d="M7007 3453 c-16 -15 -5 -35 23 -45 36 -12 34 -33 -3 -33 -14 1 -23
-3 -21 -7 9 -14 41 -9 55 8 11 14 10 18 -6 30 -10 8 -25 14 -32 14 -7 0 -13 7
-13 16 0 12 7 15 25 12 13 -3 22 -1 19 3 -6 11 -38 12 -47 2z"/>
<path d="M8021 3408 c1 -29 4 -43 6 -31 3 13 13 23 26 25 16 2 22 10 22 28 0
20 -6 26 -27 28 -28 3 -28 3 -27 -50z m49 22 c0 -13 -7 -20 -20 -20 -13 0 -20
7 -20 20 0 13 7 20 20 20 13 0 20 -7 20 -20z"/>
<path d="M8309 3443 c0 -10 -2 -31 -3 -46 -1 -16 2 -31 6 -33 4 -3 8 18 8 45
0 28 -2 51 -5 51 -3 0 -5 -8 -6 -17z"/>
<path d="M8392 3448 c-13 -13 -16 -64 -4 -72 4 -2 6 11 4 30 -5 40 18 55 52
34 19 -12 20 -12 7 3 -16 20 -42 22 -59 5z"/>
<path d="M8483 3410 c0 -30 2 -43 4 -27 2 15 2 39 0 55 -2 15 -4 2 -4 -28z"/>
<path d="M8733 3410 c0 -30 1 -47 4 -37 2 9 7 17 10 17 4 0 16 -8 27 -17 21
-18 21 -18 2 4 -16 20 -17 25 -5 40 12 16 11 16 -8 0 -21 -19 -22 -19 -26 15
-2 20 -4 11 -4 -22z"/>
<path d="M6805 3400 c2 -40 15 -51 15 -12 0 17 -4 33 -8 36 -5 3 -8 -8 -7 -24z"/>
<path d="M6843 3395 c0 -22 2 -30 4 -17 2 12 2 30 0 40 -3 9 -5 -1 -4 -23z"/>
<path d="M6880 3419 c0 -5 5 -7 10 -4 6 3 10 8 10 11 0 2 -4 4 -10 4 -5 0 -10
-5 -10 -11z"/>
<path d="M7135 3400 c2 -40 15 -51 15 -12 0 17 -4 33 -8 36 -5 3 -8 -8 -7 -24z"/>
<path d="M7209 3403 c-8 -22 -12 -24 -19 -13 -6 8 -10 11 -10 5 0 -18 17 -38
23 -28 12 18 27 63 22 63 -3 0 -10 -12 -16 -27z"/>
<path d="M7253 3395 c0 -22 2 -30 4 -17 2 12 2 30 0 40 -3 9 -5 -1 -4 -23z"/>
<path d="M7290 3419 c0 -5 5 -7 10 -4 6 3 10 8 10 11 0 2 -4 4 -10 4 -5 0 -10
-5 -10 -11z"/>
<path d="M7325 3420 c3 -5 8 -10 11 -10 2 0 4 5 4 10 0 6 -5 10 -11 10 -5 0
-7 -4 -4 -10z"/>
<path d="M7377 3423 c-13 -13 -7 -51 9 -57 14 -5 15 -4 4 9 -7 8 -10 24 -7 35
5 21 4 24 -6 13z"/>
<path d="M7423 3385 c0 -27 2 -38 4 -22 2 15 2 37 0 50 -2 12 -4 0 -4 -28z"/>
<path d="M8223 3395 c0 -22 2 -30 4 -17 2 12 2 30 0 40 -3 9 -5 -1 -4 -23z"/>
<path d="M8528 3395 c2 -19 6 -35 8 -35 2 0 4 16 4 35 0 19 -4 35 -8 35 -4 0
-6 -16 -4 -35z"/>
<path d="M8813 3395 c0 -22 2 -30 4 -17 2 12 2 30 0 40 -3 9 -5 -1 -4 -23z"/>
<path d="M8843 3395 c0 -22 2 -30 4 -17 2 12 2 30 0 40 -3 9 -5 -1 -4 -23z"/>
<path d="M8888 3395 c2 -19 6 -35 8 -35 2 0 4 16 4 35 0 19 -4 35 -8 35 -4 0
-6 -16 -4 -35z"/>
<path d="M8983 3390 c0 -25 2 -35 4 -22 2 12 2 32 0 45 -2 12 -4 2 -4 -23z"/>
<path d="M503 3413 c9 -2 23 -2 30 0 6 3 -1 5 -18 5 -16 0 -22 -2 -12 -5z"/>
<path d="M597 3395 c-8 -19 -156 -22 -176 -2 -11 10 -13 9 -9 -3 7 -23 170
-27 188 -5 7 8 11 18 8 21 -3 3 -8 -2 -11 -11z"/>
<path d="M8251 3399 c-1 -19 26 -45 36 -35 3 3 1 6 -6 6 -6 0 -16 10 -21 23
-6 15 -9 17 -9 6z"/>
<path d="M6765 3390 c-8 -13 3 -30 18 -30 8 0 7 3 -2 9 -7 5 -10 14 -7 20 4 6
5 11 2 11 -3 0 -8 -4 -11 -10z"/>
<path d="M7095 3390 c-8 -13 3 -30 18 -30 8 0 7 3 -2 9 -7 5 -10 14 -7 20 4 6
5 11 2 11 -3 0 -8 -4 -11 -10z"/>
<path d="M8430 3374 c-17 -9 -20 -14 -9 -14 9 0 22 7 29 15 15 18 13 18 -20
-1z"/>
<path d="M8147 3369 c7 -7 15 -10 18 -7 3 3 -2 9 -12 12 -14 6 -15 5 -6 -5z"/>
<path d="M8578 3368 c5 -5 16 -8 23 -6 8 3 3 7 -10 11 -17 4 -21 3 -13 -5z"/>
<path d="M8657 3368 c2 -5 10 -8 18 -8 8 0 16 3 18 8 3 4 -5 7 -18 7 -13 0
-21 -3 -18 -7z"/>
<path d="M6460 3220 c0 -7 197 -10 570 -10 373 0 570 3 570 10 0 7 -197 10
-570 10 -373 0 -570 -3 -570 -10z"/>
<path d="M4260 2659 c0 -5 5 -7 10 -4 6 3 10 8 10 11 0 2 -4 4 -10 4 -5 0 -10
-5 -10 -11z"/>
<path d="M4730 2660 c0 -5 5 -10 10 -10 6 0 10 5 10 10 0 6 -4 10 -10 10 -5 0
-10 -4 -10 -10z"/>
<path d="M4020 2606 c0 -31 5 -56 10 -56 6 0 10 8 10 19 0 13 10 20 31 25 26
5 30 10 27 33 -3 24 -8 28 -40 31 l-38 3 0 -55z m57 28 c6 -16 -15 -37 -29
-28 -4 3 -8 14 -8 25 0 23 28 26 37 3z"/>
<path d="M4120 2605 c0 -30 5 -55 10 -55 6 0 10 25 10 55 0 30 -4 55 -10 55
-5 0 -10 -25 -10 -55z"/>
<path d="M4360 2642 c0 -13 -8 -18 -27 -17 -22 0 -29 -5 -31 -23 -5 -32 14
-51 49 -50 28 1 29 2 29 55 0 29 -4 53 -10 53 -5 0 -10 -8 -10 -18z m-2 -50
c3 -17 -2 -22 -17 -22 -16 0 -21 6 -21 26 0 33 33 30 38 -4z"/>
<path d="M4444 2645 c-8 -20 13 -45 37 -45 11 0 19 -7 19 -16 0 -13 -7 -15
-30 -10 -33 6 -42 -9 -10 -19 57 -18 85 37 30 58 -41 16 -41 42 0 33 19 -3 29
-2 25 4 -10 16 -65 12 -71 -5z"/>
<path d="M4188 2623 c12 -2 22 -8 22 -13 0 -5 -10 -10 -22 -12 -15 -2 -23 -10
-23 -23 0 -16 7 -20 33 -20 31 -1 32 1 32 37 0 36 -1 38 -32 37 -24 -1 -27 -3
-10 -6z m22 -48 c-7 -8 -16 -15 -21 -15 -5 0 -9 7 -9 15 0 9 9 15 21 15 18 0
19 -2 9 -15z"/>
<path d="M4263 2590 c0 -25 2 -35 4 -22 2 12 2 32 0 45 -2 12 -4 2 -4 -23z"/>
<path d="M4568 2623 c12 -2 22 -8 22 -13 0 -5 -10 -10 -22 -12 -15 -2 -23 -10
-23 -23 0 -16 7 -20 33 -20 31 -1 32 1 32 37 0 36 -1 38 -32 37 -24 -1 -27 -3
-10 -6z m22 -48 c-7 -8 -16 -15 -21 -15 -5 0 -9 7 -9 15 0 9 9 15 21 15 18 0
19 -2 9 -15z"/>
<path d="M4644 2593 c17 -50 32 -52 51 -7 18 43 18 44 5 44 -5 0 -14 -15 -19
-32 l-9 -33 -12 33 c-17 45 -32 41 -16 -5z"/>
<path d="M4730 2590 c0 -22 5 -40 10 -40 6 0 10 18 10 40 0 22 -4 40 -10 40
-5 0 -10 -18 -10 -40z"/>
<path d="M4781 2586 l2 -41 6 35 c9 50 41 55 41 6 0 -20 5 -36 11 -36 6 0 9
16 7 38 -3 34 -5 37 -35 38 -32 1 -33 0 -32 -40z"/>
<path d="M4874 2603 c-8 -29 17 -56 42 -46 9 3 14 -1 14 -12 0 -13 -6 -16 -25
-11 -15 4 -25 2 -25 -4 0 -7 14 -10 33 -8 31 3 32 4 35 56 l3 52 -35 0 c-30 0
-37 -4 -42 -27z m56 -8 c0 -25 -23 -35 -35 -15 -10 16 2 40 20 40 9 0 15 -9
15 -25z"/>
<path d="M11610 2615 c0 -8 4 -15 10 -15 5 0 7 7 4 15 -4 8 -8 15 -10 15 -2 0
-4 -7 -4 -15z"/>
<path d="M11702 2615 c-7 -8 -8 -15 -3 -15 5 0 12 -8 14 -17 3 -10 5 -3 6 15
1 36 1 37 -17 17z"/>
<path d="M11775 2611 c-3 -12 -11 -19 -16 -16 -5 4 -9 2 -9 -4 0 -5 4 -12 9
-15 8 -6 35 43 27 51 -2 2 -7 -5 -11 -16z"/>
<path d="M11812 2600 c0 -19 2 -27 5 -17 2 9 2 25 0 35 -3 9 -5 1 -5 -18z"/>
<path d="M11842 2600 c0 -19 2 -27 5 -17 2 9 2 25 0 35 -3 9 -5 1 -5 -18z"/>
<path d="M11878 2600 c2 -16 6 -30 8 -30 2 0 4 14 4 30 0 17 -4 30 -8 30 -5 0
-7 -13 -4 -30z"/>
<path d="M11912 2603 c2 -14 10 -28 18 -30 12 -4 13 -3 1 5 -8 6 -12 19 -8 31
3 12 1 21 -5 21 -5 0 -8 -12 -6 -27z"/>
<path d="M3562 2546 c2 -42 7 -61 18 -64 13 -4 13 -3 2 10 -7 9 -12 34 -11 57
2 22 0 44 -5 48 -4 4 -6 -19 -4 -51z"/>
<path d="M3698 2593 c6 -2 18 -2 25 0 6 3 1 5 -13 5 -14 0 -19 -2 -12 -5z"/>
<path d="M11640 2591 c0 -5 -8 -12 -17 -14 -14 -4 -12 -5 5 -6 13 -1 22 5 22
14 0 8 -2 15 -5 15 -3 0 -5 -4 -5 -9z"/>
<path d="M11670 2591 c0 -10 19 -25 25 -20 1 2 -3 10 -11 17 -8 7 -14 8 -14 3z"/>
<path d="M12020 2592 c0 -6 -8 -13 -17 -15 -16 -4 -16 -5 -1 -6 18 -1 34 16
24 26 -3 4 -6 1 -6 -5z"/>
<path d="M3732 2525 c0 -16 2 -22 5 -12 2 9 2 23 0 30 -3 6 -5 -1 -5 -18z"/>
<path d="M3648 2513 c7 -3 16 -2 19 1 4 3 -2 6 -13 5 -11 0 -14 -3 -6 -6z"/>
<path d="M4035 2368 c-2 -7 -5 -32 -7 -55 -3 -43 -3 -43 29 -43 18 0 33 4 33
9 0 4 -11 6 -24 4 -23 -5 -25 -2 -24 38 0 24 5 47 12 51 8 6 7 8 -2 8 -7 0
-14 -6 -17 -12z"/>
<path d="M4075 2370 c3 -5 8 -10 11 -10 2 0 4 5 4 10 0 6 -5 10 -11 10 -5 0
-7 -4 -4 -10z"/>
<path d="M4125 2370 c-3 -6 1 -7 9 -4 18 7 21 14 7 14 -6 0 -13 -4 -16 -10z"/>
<path d="M4170 2365 c11 -13 8 -21 -18 -48 -18 -18 -32 -36 -32 -40 0 -4 17
-6 38 -6 30 2 32 3 10 6 -35 5 -35 10 -2 44 26 27 28 59 3 59 -8 0 -8 -4 1
-15z"/>
<path d="M4224 2368 c-4 -6 -3 -8 4 -4 7 4 12 -11 15 -46 l3 -53 2 58 c2 54
-8 72 -24 45z"/>
<path d="M4288 2355 c-23 -51 20 -106 57 -75 24 20 17 100 -8 100 -7 0 -7 -4
1 -12 22 -22 12 -88 -14 -88 -24 0 -39 46 -26 75 6 14 9 25 7 25 -3 0 -11 -11
-17 -25z"/>
<path d="M4437 2373 c-4 -3 -7 -23 -7 -43 0 -44 23 -69 48 -53 22 14 24 94 2
101 -13 4 -13 3 -2 -11 7 -9 12 -31 10 -49 -2 -25 -8 -33 -23 -33 -16 0 -21 8
-23 39 -2 24 2 42 10 47 7 5 8 9 2 9 -6 0 -14 -3 -17 -7z"/>
<path d="M4534 2354 c-9 -36 7 -78 31 -82 39 -8 62 71 28 99 -15 13 -15 12 -5
-8 16 -30 15 -58 -3 -73 -33 -27 -64 47 -33 78 9 9 9 12 0 12 -6 0 -15 -12
-18 -26z"/>
<path d="M3397 1723 c18 -4 23 -12 26 -51 l3 -47 2 47 c2 35 6 48 20 51 9 3
-3 5 -28 4 -25 0 -35 -2 -23 -4z"/>
<path d="M5918 1680 c-9 -27 -12 -50 -7 -50 5 0 9 7 9 15 0 9 9 15 25 15 16 0
25 -6 25 -15 0 -8 4 -15 10 -15 12 0 -21 92 -36 97 -5 2 -17 -19 -26 -47z m42
-2 c0 -5 -7 -8 -15 -8 -17 0 -18 2 -9 25 5 13 8 14 15 3 5 -7 9 -16 9 -20z"/>
<path d="M6887 1723 c-14 -14 -6 -34 18 -45 26 -12 34 -38 12 -38 -7 0 -19 6
-26 13 -11 10 -13 9 -9 -3 6 -21 42 -24 58 -4 12 14 12 18 -5 30 -10 8 -25 14
-32 14 -7 0 -13 7 -13 16 0 12 7 15 25 12 13 -3 22 -1 19 3 -6 11 -38 12 -47
2z"/>
<path d="M8130 1680 c0 -48 1 -50 28 -50 35 0 52 16 52 50 0 34 -17 50 -52 50
-27 0 -28 -2 -28 -50z m68 12 c4 -26 -13 -52 -34 -52 -10 0 -14 13 -14 41 0
36 2 40 23 37 14 -2 23 -11 25 -26z"/>
<path d="M10190 1709 c-17 -30 -4 -68 25 -75 25 -6 45 1 45 17 0 5 -9 4 -21
-3 -17 -11 -22 -10 -35 6 -8 11 -14 23 -14 26 0 3 6 15 14 26 13 16 18 17 35
7 28 -17 36 -16 21 2 -18 22 -57 19 -70 -6z"/>
<path d="M10290 1680 c0 -29 2 -51 5 -48 8 7 9 87 2 95 -4 3 -7 -18 -7 -47z"/>
<path d="M10703 1680 c0 -30 2 -43 4 -27 2 15 2 39 0 55 -2 15 -4 2 -4 -28z"/>
<path d="M11162 1718 c-15 -15 -16 -60 0 -76 17 -17 43 -15 59 5 13 15 12 15
-8 2 -20 -12 -25 -11 -39 3 -36 36 8 90 45 56 11 -11 13 -10 9 2 -6 19 -49 25
-66 8z"/>
<path d="M3927 1713 c-6 -11 4 -83 12 -83 7 0 6 78 -2 86 -3 3 -7 2 -10 -3z"/>
<path d="M6387 1713 c-6 -11 4 -83 12 -83 7 0 6 78 -2 86 -3 3 -7 2 -10 -3z"/>
<path d="M6968 1715 c-10 -11 8 -79 22 -82 12 -4 13 -3 1 5 -9 6 -12 21 -9 41
4 30 -3 47 -14 36z"/>
<path d="M7097 1713 c-6 -11 4 -83 12 -83 7 0 6 78 -2 86 -3 3 -7 2 -10 -3z"/>
<path d="M8317 1713 c-6 -11 4 -83 12 -83 7 0 6 78 -2 86 -3 3 -7 2 -10 -3z"/>
<path d="M11332 1679 c4 -56 23 -62 22 -7 -1 23 -7 44 -13 46 -9 3 -11 -9 -9
-39z"/>
<path d="M3471 1665 c2 -31 3 -34 6 -12 3 16 11 31 19 34 21 8 17 19 -6 19
-17 0 -20 -6 -19 -41z"/>
<path d="M3536 1701 c-3 -5 1 -8 10 -7 22 1 29 -43 9 -51 -22 -8 -33 6 -15 18
13 9 13 10 0 6 -26 -7 -17 -32 13 -33 24 -1 27 2 27 31 0 21 -6 35 -16 39 -20
8 -22 8 -28 -3z"/>
<path d="M3618 1703 c-13 -3 -18 -15 -18 -39 0 -43 18 -45 22 -1 2 17 8 32 13
32 6 0 11 -15 13 -32 4 -36 22 -46 22 -12 0 23 -17 60 -28 58 -4 -1 -15 -3
-24 -6z"/>
<path d="M3703 1703 c-20 -7 -15 -31 7 -38 27 -9 26 -29 -1 -22 -16 4 -19 3
-11 -5 14 -14 42 -3 42 16 0 7 -9 16 -21 19 -12 3 -18 10 -15 16 4 6 13 8 21
4 8 -3 15 -3 15 0 0 8 -24 14 -37 10z"/>
<path d="M3776 1701 c-3 -5 1 -8 10 -7 22 1 29 -43 9 -51 -22 -8 -33 6 -15 18
13 9 13 10 0 6 -26 -7 -17 -32 13 -33 24 -1 27 2 27 31 0 21 -6 35 -16 39 -20
8 -22 8 -28 -3z"/>
<path d="M3855 1696 c-20 -15 -17 -45 7 -60 13 -8 21 -7 29 1 9 9 7 11 -9 6
-26 -7 -40 20 -22 42 10 12 16 13 26 4 9 -7 14 -8 14 -1 0 16 -27 21 -45 8z"/>
<path d="M3973 1670 c0 -25 2 -35 4 -22 2 12 2 32 0 45 -2 12 -4 2 -4 -23z"/>
<path d="M4015 1694 c-19 -19 -16 -43 6 -57 37 -23 69 29 37 61 -16 16 -23 15
-43 -4z m42 -38 c-10 -25 -37 -19 -37 7 0 13 3 27 7 31 11 11 36 -21 30 -38z"/>
<path d="M4091 1665 c2 -28 3 -32 6 -13 2 14 11 32 18 38 16 13 20 8 29 -40 2
-14 3 -7 3 15 -2 36 -4 40 -29 40 -26 1 -28 -2 -27 -40z"/>
<path d="M6011 1666 c2 -40 2 -40 8 -8 3 18 11 33 16 33 6 0 12 -15 15 -33 l6
-33 5 38 c3 20 3 38 -1 38 -44 11 -50 6 -49 -35z"/>
<path d="M6087 1700 c6 -8 13 -28 16 -45 l4 -30 2 31 c0 20 -6 37 -16 45 -16
12 -16 12 -6 -1z"/>
<path d="M6142 1701 c-8 -5 -12 -21 -10 -37 2 -23 8 -29 28 -29 18 0 26 6 28
23 3 22 -13 52 -27 52 -3 0 -12 -4 -19 -9z m33 -31 c0 -13 -6 -25 -12 -27 -16
-6 -27 21 -19 43 9 23 31 11 31 -16z"/>
<path d="M6300 1671 c0 -23 2 -41 4 -41 8 0 12 71 4 76 -4 3 -8 -13 -8 -35z"/>
<path d="M6338 1698 c5 -7 12 -26 15 -43 4 -28 4 -28 6 6 1 26 -4 39 -15 43
-13 5 -14 3 -6 -6z"/>
<path d="M7026 1701 c-3 -5 1 -8 10 -7 22 1 29 -43 9 -51 -22 -8 -33 6 -15 18
13 9 13 10 0 6 -26 -7 -17 -32 13 -33 24 -1 27 2 27 31 0 21 -6 35 -16 39 -20
8 -22 8 -28 -3z"/>
<path d="M7143 1675 c2 -36 5 -40 30 -41 25 -1 27 1 26 40 l-2 41 -6 -35 c-4
-22 -12 -35 -21 -35 -9 0 -18 13 -22 35 l-6 35 1 -40z"/>
<path d="M7234 1695 c-7 -18 3 -35 22 -35 8 0 14 -5 14 -11 0 -7 -10 -9 -27
-4 -21 5 -25 4 -17 -5 16 -16 48 -9 52 11 2 10 -6 19 -19 22 -11 3 -18 10 -15
16 4 6 14 8 24 5 14 -5 15 -4 2 5 -20 15 -30 14 -36 -4z"/>
<path d="M8246 1701 c-3 -5 1 -8 10 -7 22 1 29 -43 9 -51 -22 -8 -33 6 -15 18
13 9 13 10 0 6 -26 -7 -17 -32 13 -33 24 -1 27 2 27 31 0 21 -6 35 -16 39 -20
8 -22 8 -28 -3z"/>
<path d="M8370 1696 c-27 -34 12 -88 43 -57 7 7 4 8 -10 5 -12 -3 -24 -1 -27
5 -5 7 3 11 18 11 19 0 26 5 26 19 0 10 -7 22 -16 25 -21 8 -20 8 -34 -8z m38
-14 c2 -7 -6 -12 -17 -12 -21 0 -27 11 -14 24 9 9 26 2 31 -12z"/>
<path d="M10320 1703 c0 -5 4 -13 9 -18 5 -6 11 -21 14 -35 4 -22 4 -21 6 6 0
17 -6 37 -14 44 -8 7 -15 8 -15 3z"/>
<path d="M10380 1699 c-12 -8 -11 -9 5 -7 16 2 21 -3 23 -29 2 -18 7 -33 13
-33 13 0 11 54 -3 68 -14 14 -19 15 -38 1z"/>
<path d="M10450 1671 c0 -23 2 -41 4 -41 8 0 12 71 4 76 -4 3 -8 -13 -8 -35z"/>
<path d="M10488 1698 c5 -7 12 -26 15 -43 4 -28 4 -28 6 6 1 26 -4 39 -15 43
-13 5 -14 3 -6 -6z"/>
<path d="M10548 1703 c-13 -3 -18 -15 -18 -39 0 -43 18 -45 22 -1 2 17 8 32
13 32 6 0 11 -15 13 -32 4 -36 22 -46 22 -12 0 23 -17 60 -28 58 -4 -1 -15 -3
-24 -6z"/>
<path d="M10626 1694 c-9 -8 -16 -21 -16 -28 0 -29 51 -49 65 -26 4 7 -2 9
-19 4 -16 -4 -26 -2 -26 5 0 6 11 11 25 11 30 0 34 25 6 40 -15 7 -23 6 -35
-6z m34 -15 c0 -5 -7 -9 -15 -9 -15 0 -20 12 -9 23 8 8 24 -1 24 -14z"/>
<path d="M11260 1700 c-12 -8 -10 -10 9 -8 19 2 24 -2 26 -20 1 -13 -4 -26
-12 -29 -20 -8 -30 6 -13 17 13 8 12 10 -2 10 -11 0 -18 -8 -18 -20 0 -16 6
-20 30 -18 25 2 30 7 30 28 0 24 -16 50 -29 50 -4 0 -13 -5 -21 -10z"/>
<path d="M11392 1701 c-20 -12 -11 -65 12 -69 10 -2 23 1 29 7 7 7 4 8 -10 5
-12 -3 -24 -1 -27 5 -5 7 3 11 18 11 28 0 34 18 14 38 -14 14 -19 15 -36 3z
m36 -19 c2 -7 -6 -12 -17 -12 -21 0 -27 11 -14 24 9 9 26 2 31 -12z"/>
<path d="M11472 1698 c-27 -27 -2 -81 29 -62 5 3 9 -2 9 -11 0 -13 -6 -16 -26
-11 -17 5 -23 3 -19 -4 10 -17 44 -11 55 9 12 24 13 81 1 81 -5 0 -15 2 -23 5
-7 3 -19 0 -26 -7z m33 -28 c0 -27 -22 -39 -31 -16 -8 22 3 49 19 43 6 -2 12
-14 12 -27z"/>
<path d="M11555 1694 c-19 -19 -16 -43 6 -57 37 -23 69 29 37 61 -16 16 -23
15 -43 -4z m42 -38 c-10 -25 -37 -19 -37 7 0 13 3 27 7 31 11 11 36 -21 30
-38z"/>
<path d="M11631 1665 c2 -31 3 -34 6 -12 3 16 11 31 19 34 21 8 17 19 -6 19
-17 0 -20 -6 -19 -41z"/>
<path d="M11730 1678 l-11 -33 -14 30 c-7 17 -14 25 -14 18 -1 -7 4 -23 10
-37 10 -20 9 -29 -2 -42 -12 -15 -12 -17 1 -12 14 4 55 96 46 105 -2 2 -9 -11
-16 -29z"/>
<path d="M6210 1681 c0 -32 11 -51 29 -50 10 0 11 2 4 6 -7 2 -13 18 -13 34 0
16 -4 29 -10 29 -5 0 -10 -9 -10 -19z"/>
<path d="M6260 1665 c0 -19 5 -35 10 -35 6 0 10 16 10 35 0 19 -4 35 -10 35
-5 0 -10 -16 -10 -35z"/>
<path d="M10367 1664 c-10 -10 5 -34 22 -34 14 0 14 2 1 10 -13 9 -13 11 0 20
13 8 13 10 -1 10 -9 0 -18 -3 -22 -6z"/>
<path d="M11393 1383 c75 -2 199 -2 275 0 75 1 13 3 -138 3 -151 0 -213 -2
-137 -3z"/>
<path d="M3402 1298 c-15 -15 -16 -60 0 -76 16 -16 43 -15 58 3 15 18 -1 20
-18 3 -8 -8 -15 -8 -27 2 -19 16 -19 44 1 61 13 10 19 10 36 0 16 -10 19 -10
16 1 -6 17 -50 22 -66 6z"/>
<path d="M3490 1261 c0 -28 5 -51 10 -51 6 0 10 9 10 20 0 26 14 25 32 -1 13
-20 14 -18 13 27 0 48 -1 49 -32 52 l-33 3 0 -50z m55 19 c0 -8 -8 -16 -17
-18 -13 -2 -18 3 -18 18 0 15 5 20 18 18 9 -2 17 -10 17 -18z"/>
<path d="M3580 1260 l0 -50 38 1 c30 2 32 3 10 6 -35 5 -39 40 -5 46 l22 4
-22 2 c-33 2 -29 29 5 34 22 3 20 4 -10 6 l-38 1 0 -50z"/>
<path d="M3670 1260 c0 -46 2 -50 23 -50 27 0 57 28 57 53 0 23 -28 47 -56 47
-22 0 -24 -4 -24 -50z m44 34 c35 -13 14 -74 -25 -74 -5 0 -9 18 -9 40 0 40 5
45 34 34z"/>
<path d="M3773 1260 c0 -30 2 -43 4 -27 2 15 2 39 0 55 -2 15 -4 2 -4 -28z"/>
<path d="M3813 1303 c13 -3 17 -15 17 -49 0 -24 5 -44 10 -44 6 0 10 20 10 44
0 34 4 46 18 49 9 3 -3 5 -28 5 -25 0 -37 -2 -27 -5z"/>
<path d="M3940 1290 c-17 -31 -4 -69 25 -76 26 -6 45 1 45 18 0 7 -5 7 -14 -1
-22 -18 -46 -2 -46 30 0 34 23 48 47 28 14 -12 16 -12 11 1 -8 25 -55 25 -68
0z"/>
<path d="M4046 1264 c-19 -56 -19 -54 -6 -54 6 0 10 7 10 15 0 8 9 15 20 15
11 0 23 -7 26 -15 4 -8 10 -15 15 -15 12 0 -23 92 -37 97 -7 2 -19 -17 -28
-43z m32 -13 c-15 -5 -21 7 -13 26 7 17 8 17 15 -2 4 -11 3 -22 -2 -24z"/>
<path d="M4141 1258 c1 -29 4 -43 6 -30 5 27 29 29 38 2 3 -11 11 -20 16 -20
7 0 7 6 0 17 -6 11 -6 24 1 36 12 24 -6 47 -38 47 -22 0 -24 -4 -23 -52z m47
19 c2 -12 -3 -17 -17 -17 -15 0 -21 6 -21 21 0 25 33 22 38 -4z"/>
<path d="M4230 1260 c0 -46 2 -50 23 -50 27 0 57 28 57 53 0 23 -28 47 -56 47
-22 0 -24 -4 -24 -50z m44 34 c35 -13 14 -74 -25 -74 -5 0 -9 18 -9 40 0 40 5
45 34 34z"/>
<path d="M4370 1302 c0 -6 9 -8 20 -5 14 4 20 0 20 -11 0 -9 -5 -16 -12 -16
-6 0 -3 -6 8 -14 28 -22 5 -43 -27 -25 -22 11 -23 11 -10 -5 8 -9 24 -16 35
-14 18 3 21 10 21 48 0 42 -2 45 -27 48 -16 2 -28 -1 -28 -6z"/>
<path d="M4460 1302 c0 -6 9 -8 20 -5 14 4 20 0 20 -11 0 -9 -5 -16 -12 -16
-6 0 -3 -6 8 -14 28 -22 5 -43 -27 -25 -22 11 -23 11 -10 -5 8 -9 24 -16 35
-14 18 3 21 10 21 48 0 42 -2 45 -27 48 -16 2 -28 -1 -28 -6z"/>
<path d="M4545 1300 c-4 -7 2 -9 19 -4 20 5 26 2 26 -10 0 -9 -8 -16 -17 -16
-17 -1 -17 -1 0 -11 20 -12 23 -39 4 -39 -7 0 -19 6 -26 13 -11 10 -13 9 -9
-3 6 -18 37 -24 58 -10 12 8 13 13 3 29 -8 12 -9 22 -3 26 5 3 7 12 3 20 -6
17 -49 20 -58 5z"/>
<path d="M4635 1300 c-4 -7 2 -9 19 -4 20 5 26 2 26 -10 0 -9 -8 -16 -17 -16
-17 -1 -17 -1 0 -11 20 -12 23 -39 4 -39 -7 0 -19 6 -26 13 -11 10 -13 9 -9
-3 6 -18 37 -24 58 -10 12 8 13 13 3 29 -8 12 -9 22 -3 26 5 3 7 12 3 20 -6
17 -49 20 -58 5z"/>
<path d="M4761 1258 c1 -29 4 -43 6 -30 3 15 11 22 28 22 27 0 40 26 24 46 -6
8 -22 14 -35 14 -22 0 -24 -4 -23 -52z m47 19 c2 -12 -3 -17 -17 -17 -15 0
-21 6 -21 21 0 25 33 22 38 -4z"/>
<path d="M4846 1264 c-19 -56 -19 -54 -6 -54 6 0 10 7 10 15 0 8 9 15 20 15
11 0 23 -7 26 -15 4 -8 10 -15 15 -15 12 0 -23 92 -37 97 -7 2 -19 -17 -28
-43z m32 -13 c-15 -5 -21 7 -13 26 7 17 8 17 15 -2 4 -11 3 -22 -2 -24z"/>
<path d="M4940 1278 c11 -18 20 -42 20 -53 1 -12 6 -5 14 18 8 20 19 44 26 52
8 10 9 15 2 15 -6 0 -17 -10 -23 -22 l-12 -22 -15 22 c-23 35 -34 26 -12 -10z"/>
<path d="M5032 1258 l1 -53 6 45 6 45 13 -42 c11 -38 32 -59 32 -34 0 5 5 22
12 38 l12 28 6 -40 c7 -40 7 -39 9 13 1 61 -17 68 -33 14 -5 -18 -12 -32 -16
-32 -4 0 -11 14 -16 32 -16 54 -34 47 -32 -14z"/>
<path d="M5150 1260 l0 -50 38 1 c30 2 32 3 10 6 -35 5 -39 40 -5 46 l22 4
-22 2 c-33 2 -29 29 5 34 22 3 20 4 -10 6 l-38 1 0 -50z"/>
<path d="M5927 1303 c-3 -5 5 -8 18 -8 13 0 21 3 18 8 -2 4 -10 7 -18 7 -8 0
-16 -3 -18 -7z"/>
<path d="M6005 1300 c-3 -6 1 -7 10 -4 8 4 23 0 33 -7 15 -13 16 -12 3 4 -15
19 -36 22 -46 7z"/>
<path d="M6090 1301 c0 -4 11 -6 25 -3 14 2 25 6 25 8 0 2 -11 4 -25 4 -14 0
-25 -4 -25 -9z"/>
<path d="M6210 1291 c-5 -11 -10 -26 -9 -33 0 -7 5 -1 10 14 6 15 18 29 27 31
16 4 16 5 0 6 -10 0 -22 -8 -28 -18z"/>
<path d="M6330 1303 c8 -3 19 -11 23 -17 6 -7 7 -6 4 4 -2 8 -12 16 -23 17
-13 2 -15 1 -4 -4z"/>
<path d="M8142 1258 l2 -53 3 47 c4 42 7 47 31 51 24 4 24 4 -5 6 l-33 1 2
-52z"/>
<path d="M8380 1260 c0 -46 2 -50 24 -50 28 0 56 24 56 46 0 32 -21 54 -50 54
-29 0 -30 -1 -30 -50z m64 18 c14 -23 -3 -52 -33 -56 -19 -3 -21 1 -21 38 0
37 2 41 21 38 12 -2 27 -11 33 -20z"/>
<path d="M8687 1304 c-4 -4 -7 -12 -7 -18 0 -6 5 -5 12 2 16 16 38 15 38 -2 0
-8 -12 -28 -26 -45 l-26 -31 34 1 c25 1 27 3 10 6 l-24 5 22 23 c12 13 20 31
18 42 -3 18 -38 30 -51 17z"/>
<path d="M8770 1286 c-14 -38 3 -78 33 -74 19 3 22 9 22 48 0 39 -3 45 -22 48
-17 3 -26 -3 -33 -22z m48 -23 c-3 -43 -32 -58 -41 -23 -8 32 3 60 25 60 16 0
19 -6 16 -37z"/>
<path d="M8934 1298 c-4 -6 -3 -8 4 -4 7 4 12 -10 15 -41 l3 -48 2 53 c2 49
-8 66 -24 40z"/>
<path d="M8995 1299 c-4 -6 -4 -13 -1 -16 3 -4 6 -1 6 5 0 7 9 12 20 12 24 0
26 -22 4 -40 -8 -8 -20 -22 -25 -32 -9 -16 -6 -18 23 -17 24 1 27 3 10 6 l-22
4 21 30 c11 16 18 36 15 44 -6 17 -42 20 -51 4z"/>
<path d="M9126 1302 c-3 -5 5 -8 17 -8 19 1 22 -4 22 -34 0 -49 -30 -54 -44
-8 -6 22 -10 26 -10 12 -1 -11 5 -29 13 -40 12 -15 18 -17 33 -8 21 13 27 36
19 70 -6 23 -39 34 -50 16z"/>
<path d="M9211 1296 c-27 -33 10 -109 39 -80 8 8 4 10 -12 10 -20 -1 -23 4
-23 34 0 28 4 35 20 35 14 0 22 -9 26 -30 6 -28 7 -28 8 -4 2 42 -34 64 -58
35z"/>
<path d="M9372 1285 c6 -14 13 -24 14 -22 6 6 -9 47 -17 47 -5 0 -3 -11 3 -25z"/>
<path d="M9430 1258 c0 -28 2 -49 4 -47 8 9 13 99 5 99 -5 0 -9 -23 -9 -52z"/>
<path d="M9495 1268 l-17 -43 -14 30 c-11 24 -13 25 -8 5 14 -55 22 -57 41
-10 l18 45 6 -45 6 -45 1 53 c1 28 -2 52 -7 52 -5 0 -16 -19 -26 -42z"/>
<path d="M10190 1289 c-17 -31 -4 -68 27 -75 30 -8 53 15 53 51 0 45 -60 63
-80 24z m66 -15 c9 -34 -18 -64 -44 -48 -22 14 -27 41 -12 59 20 24 49 18 56
-11z"/>
<path d="M10342 1260 c1 -45 2 -49 7 -20 4 22 12 35 21 35 9 0 17 -13 21 -35
l6 -35 2 31 c1 32 -20 60 -38 50 -5 -4 -12 2 -14 11 -3 10 -5 -7 -5 -37z"/>
<path d="M10288 1295 c-10 -11 8 -79 22 -82 12 -4 13 -3 1 5 -9 6 -12 21 -9
41 4 30 -3 47 -14 36z"/>
<path d="M11343 1260 c-1 -25 1 -37 4 -27 2 9 11 17 18 17 8 0 16 4 19 9 4 5
-3 7 -13 4 -14 -4 -21 1 -24 19 -2 12 -4 3 -4 -22z"/>
<path d="M11800 1266 c0 -19 3 -37 8 -40 4 -2 6 13 4 35 -5 48 -12 51 -12 5z"/>
<path d="M6261 1263 c0 -19 -8 -36 -18 -42 -10 -6 -13 -11 -7 -11 20 0 36 28
31 57 -4 27 -4 27 -6 -4z"/>
<path d="M6301 1265 c-1 -31 14 -55 33 -55 5 0 2 6 -6 13 -9 6 -19 26 -21 42
l-4 30 -2 -30z"/>
<path d="M8210 1251 c0 -23 2 -41 4 -41 8 0 12 71 4 76 -4 3 -8 -13 -8 -35z"/>
<path d="M8490 1276 c-27 -33 12 -88 41 -59 6 6 1 9 -13 9 -25 -1 -37 29 -18
48 8 8 15 6 26 -8 11 -16 14 -17 14 -4 0 9 -7 19 -16 22 -21 8 -20 8 -34 -8z"/>
<path d="M8570 1276 c-27 -33 12 -88 41 -59 6 6 1 9 -13 9 -18 -1 -23 4 -23
24 0 21 4 25 25 22 19 -2 22 0 10 8 -20 13 -25 13 -40 -4z"/>
<path d="M10430 1276 c-27 -33 12 -88 42 -58 6 6 0 8 -16 5 -22 -5 -26 -2 -26
20 0 34 19 45 37 22 7 -11 13 -14 13 -9 0 11 -21 34 -31 34 -4 0 -12 -7 -19
-14z"/>
<path d="M10501 1246 c2 -34 3 -36 6 -11 3 17 9 35 14 41 5 7 3 11 -6 11 -11
0 -15 -11 -14 -41z"/>
<path d="M11224 1276 c-10 -26 4 -48 28 -44 17 2 23 10 23 28 0 18 -6 26 -23
28 -13 2 -25 -3 -28 -12z"/>
<path d="M6080 1270 c0 -5 5 -10 11 -10 5 0 7 5 4 10 -3 6 -8 10 -11 10 -2 0
-4 -4 -4 -10z"/>
<path d="M7077 1269 c7 -7 15 -10 18 -7 3 3 -2 9 -12 12 -14 6 -15 5 -6 -5z"/>
<path d="M7142 1260 c0 -14 2 -19 5 -12 2 6 2 18 0 25 -3 6 -5 1 -5 -13z"/>
<path d="M7353 1265 c-3 -9 -3 -18 -1 -21 3 -3 8 4 11 16 6 23 -1 27 -10 5z"/>
<path d="M7490 1271 c0 -6 4 -13 10 -16 6 -3 7 1 4 9 -7 18 -14 21 -14 7z"/>
<path d="M8273 1245 c0 -22 2 -30 4 -17 2 12 2 30 0 40 -3 9 -5 -1 -4 -23z"/>
<path d="M11446 1265 c-3 -8 -1 -15 4 -15 6 0 10 7 10 15 0 8 -2 15 -4 15 -2
0 -6 -7 -10 -15z"/>
<path d="M11552 1250 c0 -19 2 -27 5 -17 2 9 2 25 0 35 -3 9 -5 1 -5 -18z"/>
<path d="M11769 1248 c4 -28 6 -29 9 -9 2 13 0 27 -5 32 -6 6 -7 -3 -4 -23z"/>
<path d="M5921 1254 c0 -11 3 -14 6 -6 3 7 2 16 -1 19 -3 4 -6 -2 -5 -13z"/>
<path d="M6022 1247 c-30 -31 -28 -37 11 -36 31 2 31 2 3 6 l-28 5 23 24 c12
13 20 24 17 24 -2 0 -14 -10 -26 -23z"/>
<path d="M6128 1243 c5 -21 7 -23 10 -9 2 10 0 22 -6 28 -6 6 -7 0 -4 -19z"/>
<path d="M6356 1255 c-3 -9 -6 -22 -5 -28 0 -7 5 -1 10 12 5 13 8 26 5 28 -2
2 -6 -3 -10 -12z"/>
<path d="M7427 1259 c7 -7 15 -10 18 -7 3 3 -2 9 -12 12 -14 6 -15 5 -6 -5z"/>
<path d="M11592 1245 c0 -16 2 -22 5 -12 2 9 2 23 0 30 -3 6 -5 -1 -5 -18z"/>
<path d="M11732 1245 c0 -16 2 -22 5 -12 2 9 2 23 0 30 -3 6 -5 -1 -5 -18z"/>
<path d="M7210 1251 c0 -10 29 -36 34 -30 1 2 -6 12 -16 22 -10 9 -18 13 -18
8z"/>
<path d="M7280 1251 c0 -10 29 -36 34 -30 1 2 -6 12 -16 22 -10 9 -18 13 -18
8z"/>
<path d="M9336 1243 c-10 -25 -6 -39 5 -20 5 9 19 17 29 17 10 0 24 -8 29 -17
6 -10 10 -13 11 -8 0 31 -64 55 -74 28z"/>
<path d="M7460 1242 c0 -6 -8 -13 -17 -15 -16 -4 -16 -5 -1 -6 18 -1 34 16 24
26 -3 4 -6 1 -6 -5z"/>
<path d="M11410 1241 c0 -10 19 -25 25 -20 1 2 -3 10 -11 17 -8 7 -14 8 -14 3z"/>
<path d="M7095 1230 c-16 -7 -17 -9 -3 -9 9 -1 20 4 23 9 7 11 7 11 -20 0z"/>
<path d="M11668 1228 c5 -5 16 -8 23 -6 8 3 3 7 -10 11 -17 4 -21 3 -13 -5z"/>
<path d="M5240 1220 c0 -5 5 -10 10 -10 6 0 10 5 10 10 0 6 -4 10 -10 10 -5 0
-10 -4 -10 -10z"/>
<path d="M5330 1220 c0 -5 5 -10 10 -10 6 0 10 5 10 10 0 6 -4 10 -10 10 -5 0
-10 -4 -10 -10z"/>
<path d="M5910 1218 c0 -5 11 -8 24 -8 14 0 27 3 29 8 3 4 -8 7 -24 7 -16 0
-29 -3 -29 -7z"/>
<path d="M6097 1219 c7 -7 15 -10 18 -7 3 3 -2 9 -12 12 -14 6 -15 5 -6 -5z"/>
<path d="M7368 1223 c7 -3 16 -2 19 1 4 3 -2 6 -13 5 -11 0 -14 -3 -6 -6z"/>
<path d="M11496 1213 c-6 -14 -5 -15 5 -6 7 7 10 15 7 18 -3 3 -9 -2 -12 -12z"/>
<path d="M8301 1204 c0 -11 3 -14 6 -6 3 7 2 16 -1 19 -3 4 -6 -2 -5 -13z"/>
<path d="M8853 1205 c-3 -9 -3 -18 -1 -21 3 -3 8 4 11 16 6 23 -1 27 -10 5z"/>
<path d="M11393 1133 c75 -2 199 -2 275 0 75 1 13 3 -138 3 -151 0 -213 -2
-137 -3z"/>
<path d="M11378 953 c78 -2 206 -2 285 0 78 1 14 3 -143 3 -157 0 -221 -2
-142 -3z"/>
<path d="M11205 940 c-3 -6 1 -7 9 -4 18 7 21 14 7 14 -6 0 -13 -4 -16 -10z"/>
<path d="M11810 946 c0 -2 7 -7 16 -10 8 -3 12 -2 9 4 -6 10 -25 14 -25 6z"/>
<path d="M11155 889 c-4 -6 -5 -12 -2 -15 2 -3 7 2 10 11 7 17 1 20 -8 4z"/>
<path d="M11876 887 c3 -10 9 -15 12 -12 3 3 0 11 -7 18 -10 9 -11 8 -5 -6z"/>
<path d="M3393 830 c0 -30 2 -43 4 -27 2 15 2 39 0 55 -2 15 -4 2 -4 -28z"/>
<path d="M3431 828 c2 -52 2 -52 8 -13 l6 40 23 -37 c13 -21 28 -38 33 -38 5
0 9 23 9 50 0 55 -17 69 -22 18 l-3 -33 -20 33 c-10 17 -23 32 -27 32 -4 0 -7
-24 -7 -52z"/>
<path d="M3543 873 c13 -3 17 -15 17 -49 0 -24 5 -44 10 -44 6 0 10 20 10 44
0 34 4 46 18 49 9 3 -3 5 -28 5 -25 0 -37 -2 -27 -5z"/>
<path d="M3620 831 c0 -28 5 -51 10 -51 6 0 10 9 10 20 0 11 4 20 10 20 5 0
14 -9 20 -20 6 -11 15 -20 21 -20 6 0 7 5 2 13 -4 6 -8 28 -8 47 0 32 -3 35
-32 38 l-33 3 0 -50z m55 19 c0 -8 -8 -16 -17 -18 -13 -2 -18 3 -18 18 0 15 5
20 18 18 9 -2 17 -10 17 -18z"/>
<path d="M3723 864 c-6 -16 12 -37 41 -47 8 -3 7 -8 -1 -18 -10 -10 -16 -10
-25 -1 -17 17 -33 15 -18 -3 15 -18 42 -19 58 -3 18 18 15 26 -18 43 -32 17
-31 40 1 32 11 -3 19 -1 19 4 0 16 -50 10 -57 -7z"/>
<path d="M3813 873 c13 -3 17 -15 17 -49 0 -24 5 -44 10 -44 6 0 10 20 10 44
0 34 4 46 18 49 9 3 -3 5 -28 5 -25 0 -37 -2 -27 -5z"/>
<path d="M3930 831 c0 -28 5 -51 10 -51 6 0 10 9 10 20 0 15 7 20 26 20 22 0
25 4 22 28 -2 22 -8 28 -35 30 l-33 3 0 -50z m58 16 c2 -12 -3 -17 -17 -17
-15 0 -21 6 -21 21 0 25 33 22 38 -4z"/>
<path d="M4034 855 c9 -13 16 -36 16 -50 0 -14 5 -25 10 -25 6 0 10 10 10 23
0 13 7 32 15 43 21 28 17 43 -5 16 l-19 -23 -13 20 c-7 12 -17 21 -22 21 -4 0
-1 -11 8 -25z"/>
<path d="M4120 830 c0 -27 5 -50 10 -50 6 0 10 19 11 43 l0 42 15 -39 c19 -53
21 -54 38 -15 l15 34 1 -32 c0 -18 5 -33 10 -33 6 0 10 23 10 50 0 38 -4 50
-15 50 -8 0 -15 -4 -15 -9 0 -5 -5 -22 -11 -38 l-11 -28 -15 38 c-22 55 -43
49 -43 -13z"/>
<path d="M4250 830 c0 -58 17 -68 22 -12 l3 37 22 -37 c12 -21 27 -38 33 -38
5 0 10 22 10 50 0 28 -4 50 -10 50 -5 0 -10 -17 -10 -37 l-1 -38 -22 37 c-31
53 -47 49 -47 -12z"/>
<path d="M4367 873 c18 -4 23 -12 26 -51 l3 -47 2 47 c2 35 6 48 20 51 9 3 -3
5 -28 4 -25 0 -35 -2 -23 -4z"/>
<path d="M5985 868 c-2 -7 -5 -30 -7 -50 -4 -36 -2 -38 23 -38 15 0 30 4 33 9
3 4 -5 6 -19 4 -22 -5 -24 -2 -23 37 0 39 2 41 25 35 16 -4 22 -2 18 5 -9 14
-45 13 -50 -2z"/>
<path d="M6080 848 c-26 -43 -25 -48 5 -48 14 0 25 -6 25 -12 0 -10 2 -10 8
-1 10 16 2 93 -9 93 -5 0 -18 -15 -29 -32z m22 -30 c-21 -21 -32 -3 -15 22 16
22 18 23 21 6 2 -10 -1 -23 -6 -28z"/>
<path d="M6195 870 c-4 -7 2 -9 19 -4 36 9 35 -20 -1 -58 l-27 -28 40 1 c31 2
34 3 10 6 l-28 5 22 23 c12 13 20 31 18 42 -4 20 -42 30 -53 13z"/>
<path d="M6286 871 c-3 -4 6 -6 19 -3 33 6 33 -17 0 -48 -33 -31 -32 -40 8
-39 23 1 26 3 10 6 l-23 4 22 29 c11 16 18 36 15 44 -7 17 -42 22 -51 7z"/>
<path d="M8142 868 c-13 -13 1 -38 21 -38 6 0 2 6 -9 14 -18 14 -18 15 -1 21
9 4 24 4 33 1 8 -3 12 -2 9 4 -8 14 -38 13 -53 -2z"/>
<path d="M8470 830 c0 -46 2 -50 24 -50 28 0 56 24 56 46 0 32 -21 54 -50 54
-29 0 -30 -1 -30 -50z m64 18 c14 -23 -3 -52 -33 -56 -19 -3 -21 1 -21 38 0
37 2 41 21 38 12 -2 27 -11 33 -20z"/>
<path d="M8774 868 c-4 -6 -3 -8 4 -4 7 4 12 -10 15 -41 l3 -48 2 53 c2 49 -8
66 -24 40z"/>
<path d="M8831 853 c1 -23 2 -24 6 -6 2 13 13 24 26 26 18 4 17 5 -5 6 -24 1
-28 -3 -27 -26z"/>
<path d="M8990 869 c-13 -9 -12 -10 2 -5 14 4 18 -3 21 -42 l3 -47 2 53 c2 53
-2 60 -28 41z"/>
<path d="M9057 873 c-3 -5 5 -8 18 -8 13 0 21 3 18 8 -2 4 -10 7 -18 7 -8 0
-16 -3 -18 -7z"/>
<path d="M9177 873 c-10 -9 -8 -65 2 -81 11 -18 43 -12 48 8 4 12 3 13 -5 1
-18 -25 -44 -5 -40 31 4 43 32 50 46 11 6 -15 11 -22 11 -15 2 36 -40 67 -62
45z"/>
<path d="M9260 856 c-14 -38 3 -78 33 -74 19 3 22 9 22 48 0 39 -3 45 -22 48
-17 3 -26 -3 -33 -22z m48 -23 c-3 -43 -32 -58 -41 -23 -8 32 3 60 25 60 16 0
19 -6 16 -37z"/>
<path d="M9396 833 c-18 -53 -20 -66 -5 -40 5 9 19 17 29 17 10 0 24 -8 29
-17 15 -26 13 -13 -5 40 -9 26 -20 47 -24 47 -4 0 -15 -21 -24 -47z m37 7 c4
-15 0 -20 -13 -20 -13 0 -17 5 -13 20 3 11 9 20 13 20 4 0 10 -9 13 -20z"/>
<path d="M9482 828 l1 -53 6 45 6 45 18 -44 c14 -34 21 -41 28 -30 5 7 9 19 9
24 0 6 -4 4 -9 -3 -6 -10 -13 -2 -25 27 -22 56 -36 52 -34 -11z"/>
<path d="M9557 858 c-4 -12 -4 -24 -2 -27 3 -2 6 2 6 10 1 8 5 -4 9 -26 l7
-40 2 53 c1 53 -12 70 -22 30z"/>
<path d="M10190 859 c-17 -31 -4 -68 27 -75 30 -8 53 15 53 51 0 45 -60 63
-80 24z m66 -15 c9 -34 -18 -64 -44 -48 -22 14 -27 41 -12 59 20 24 49 18 56
-11z"/>
<path d="M10342 830 c1 -45 2 -49 7 -20 4 22 12 35 21 35 9 0 17 -13 21 -35
l6 -35 2 31 c1 32 -20 60 -38 50 -5 -4 -12 2 -14 11 -3 10 -5 -7 -5 -37z"/>
<path d="M11666 864 c-8 -21 -8 -24 3 -24 5 0 11 9 14 20 6 24 -8 27 -17 4z"/>
<path d="M10288 865 c-10 -11 8 -79 22 -82 12 -4 13 -3 1 5 -9 6 -12 21 -9 41
4 30 -3 47 -14 36z"/>
<path d="M11220 855 c-26 -32 13 -81 48 -59 34 22 22 74 -18 74 -10 0 -23 -7
-30 -15z"/>
<path d="M11363 830 c0 -25 2 -35 4 -22 2 12 2 32 0 45 -2 12 -4 2 -4 -23z"/>
<path d="M8323 853 c-8 -3 -12 -20 -12 -41 l2 -37 6 35 c4 22 12 35 21 35 9 0
17 -13 21 -35 6 -35 6 -35 8 -4 0 16 -4 35 -11 42 -13 13 -16 13 -35 5z"/>
<path d="M8580 846 c-27 -33 12 -88 42 -58 6 6 0 8 -16 5 -22 -5 -26 -2 -26
20 0 34 19 45 37 22 7 -11 13 -14 13 -9 0 11 -21 34 -31 34 -4 0 -12 -7 -19
-14z"/>
<path d="M8660 846 c-27 -33 12 -88 41 -59 6 6 1 9 -13 9 -18 -1 -23 4 -23 24
0 21 4 25 25 22 19 -2 22 0 10 8 -20 13 -25 13 -40 -4z"/>
<path d="M10430 846 c-27 -33 12 -88 42 -58 6 6 0 8 -16 5 -22 -5 -26 -2 -26
20 0 34 19 45 37 22 7 -11 13 -14 13 -9 0 11 -21 34 -31 34 -4 0 -12 -7 -19
-14z"/>
<path d="M10501 816 c2 -34 3 -36 6 -11 3 17 9 35 14 41 5 7 3 11 -6 11 -11 0
-15 -11 -14 -41z"/>
<path d="M11142 830 c0 -19 2 -27 5 -17 2 9 2 25 0 35 -3 9 -5 1 -5 -18z"/>
<path d="M11892 830 c0 -19 2 -27 5 -17 2 9 2 25 0 35 -3 9 -5 1 -5 -18z"/>
<path d="M7077 839 c7 -7 15 -10 18 -7 3 3 -2 9 -12 12 -14 6 -15 5 -6 -5z"/>
<path d="M7142 830 c0 -14 2 -19 5 -12 2 6 2 18 0 25 -3 6 -5 1 -5 -13z"/>
<path d="M7353 835 c-3 -9 -3 -18 -1 -21 3 -3 8 4 11 16 6 23 -1 27 -10 5z"/>
<path d="M7490 841 c0 -6 4 -13 10 -16 6 -3 7 1 4 9 -7 18 -14 21 -14 7z"/>
<path d="M8221 833 c-2 -32 9 -53 27 -53 14 0 14 1 0 13 -9 6 -19 23 -21 37
-4 22 -4 22 -6 3z"/>
<path d="M8273 815 c0 -22 2 -30 4 -17 2 12 2 30 0 40 -3 9 -5 -1 -4 -23z"/>
<path d="M8863 832 c22 -24 13 -46 -16 -38 -15 4 -17 2 -8 -7 8 -8 16 -9 29
-1 26 17 26 41 0 55 -23 12 -23 12 -5 -9z"/>
<path d="M9067 813 l-29 -33 39 1 c31 2 33 3 9 6 l-28 5 23 24 c12 13 21 25
18 27 -2 2 -17 -11 -32 -30z"/>
<path d="M11410 820 c0 -16 2 -30 4 -30 2 0 6 14 8 30 3 17 1 30 -4 30 -4 0
-8 -13 -8 -30z"/>
<path d="M11486 835 c-3 -8 -1 -15 4 -15 6 0 10 7 10 15 0 8 -2 15 -4 15 -2 0
-6 -7 -10 -15z"/>
<path d="M11704 835 c-9 -23 3 -45 23 -44 17 1 17 2 0 6 -14 4 -18 12 -14 29
5 27 -1 32 -9 9z"/>
<path d="M11770 820 c0 -16 2 -30 4 -30 2 0 6 14 8 30 3 17 1 30 -4 30 -4 0
-8 -13 -8 -30z"/>
<path d="M5918 833 c6 -2 18 -2 25 0 6 3 1 5 -13 5 -14 0 -19 -2 -12 -5z"/>
<path d="M7427 829 c7 -7 15 -10 18 -7 3 3 -2 9 -12 12 -14 6 -15 5 -6 -5z"/>
<path d="M7210 821 c0 -10 29 -36 34 -30 1 2 -6 12 -16 22 -10 9 -18 13 -18 8z"/>
<path d="M7280 821 c0 -10 29 -36 34 -30 1 2 -6 12 -16 22 -10 9 -18 13 -18 8z"/>
<path d="M8187 811 c4 -16 1 -21 -14 -21 -10 0 -25 6 -33 13 -12 10 -12 9 -1
-5 7 -10 22 -18 33 -18 22 0 35 27 20 42 -8 8 -9 5 -5 -11z"/>
<path d="M7460 812 c0 -6 -8 -13 -17 -15 -16 -4 -16 -5 -1 -6 18 -1 34 16 24
26 -3 4 -6 1 -6 -5z"/>
<path d="M11450 811 c0 -10 19 -25 25 -20 1 2 -3 10 -11 17 -8 7 -14 8 -14 3z"/>
<path d="M11630 812 c0 -6 -8 -13 -17 -15 -16 -4 -16 -5 -1 -6 18 -1 34 16 24
26 -3 4 -6 1 -6 -5z"/>
<path d="M7095 800 c-16 -7 -17 -9 -3 -9 9 -1 20 4 23 9 7 11 7 11 -20 0z"/>
<path d="M891 755 c-1 -46 1 -51 21 -52 25 -2 48 13 48 33 0 19 -29 44 -44 38
-8 -3 -16 2 -19 13 -3 10 -5 -5 -6 -32z m49 -14 c0 -11 -5 -23 -11 -27 -15 -9
-33 12 -26 30 9 23 37 20 37 -3z"/>
<path d="M1073 750 c0 -30 2 -43 4 -27 2 15 2 39 0 55 -2 15 -4 2 -4 -28z"/>
<path d="M6150 790 c0 -5 5 -10 11 -10 5 0 7 5 4 10 -3 6 -8 10 -11 10 -2 0
-4 -4 -4 -10z"/>
<path d="M7368 793 c7 -3 16 -2 19 1 4 3 -2 6 -13 5 -11 0 -14 -3 -6 -6z"/>
<path d="M8391 774 c0 -11 3 -14 6 -6 3 7 2 16 -1 19 -3 4 -6 -2 -5 -13z"/>
<path d="M8911 774 c0 -11 3 -14 6 -6 3 7 2 16 -1 19 -3 4 -6 -2 -5 -13z"/>
<path d="M11150 781 c0 -6 4 -13 10 -16 6 -3 7 1 4 9 -7 18 -14 21 -14 7z"/>
<path d="M11876 773 c-6 -14 -5 -15 5 -6 7 7 10 15 7 18 -3 3 -9 -2 -12 -12z"/>
<path d="M730 766 c-25 -25 2 -79 31 -60 5 3 9 -2 9 -11 0 -13 -6 -16 -27 -11
-26 5 -27 5 -6 -6 34 -17 55 5 51 55 -2 34 -7 41 -25 42 -12 1 -27 -3 -33 -9z
m38 -28 c-4 -27 -23 -34 -32 -13 -8 21 1 35 20 35 10 0 14 -8 12 -22z"/>
<path d="M819 769 c-11 -7 -9 -9 9 -9 18 0 22 -6 22 -30 0 -16 5 -30 10 -30 6
0 10 13 10 30 0 33 -27 54 -51 39z"/>
<path d="M981 737 c2 -34 3 -36 6 -12 3 16 9 33 15 36 5 4 3 9 -6 12 -13 5
-16 -1 -15 -36z"/>
<path d="M1037 773 c-11 -10 -8 -73 3 -73 6 0 10 18 10 40 0 41 -2 45 -13 33z"/>
<path d="M807 734 c-10 -10 5 -34 22 -34 14 0 14 2 1 10 -13 9 -13 11 0 20 13
8 13 10 -1 10 -9 0 -18 -3 -22 -6z"/>
<path d="M2561 716 c-7 -9 -11 -40 -9 -78 3 -62 3 -63 33 -65 28 -2 28 -1 5 5
-23 7 -25 12 -25 72 0 60 2 65 25 71 22 6 23 7 4 8 -12 1 -27 -5 -33 -13z"/>
<path d="M11207 719 c7 -7 15 -10 18 -7 3 3 -2 9 -12 12 -14 6 -15 5 -6 -5z"/>
<path d="M11820 720 c-9 -6 -10 -10 -3 -10 6 0 15 5 18 10 8 12 4 12 -15 0z"/>
<path d="M11378 703 c78 -2 206 -2 285 0 78 1 14 3 -143 3 -157 0 -221 -2
-142 -3z"/>
<path d="M2660 693 c0 -7 6 -15 13 -20 7 -5 -2 -10 -28 -14 l-40 -6 38 -2 c39
-1 45 -9 25 -29 -7 -7 -8 -12 -2 -12 6 0 19 9 29 20 18 20 18 21 -8 48 -15 14
-27 21 -27 15z"/>
<path d="M391 677 c-6 -6 -11 -26 -11 -44 0 -35 26 -58 54 -47 11 4 16 0 16
-11 0 -14 -6 -16 -31 -11 -22 4 -29 2 -27 -7 6 -17 56 -21 74 -6 9 8 14 32 14
74 l0 63 -39 0 c-21 0 -43 -4 -50 -11z m54 -43 c0 -32 -21 -39 -38 -12 -8 12
-7 21 3 32 19 24 35 14 35 -20z"/>
<path d="M1000 550 c0 -29 2 -51 5 -48 8 7 9 87 2 95 -4 3 -7 -18 -7 -47z"/>
<path d="M1191 577 c-13 -21 -12 -21 5 -5 10 10 16 20 13 22 -3 3 -11 -5 -18
-17z"/>
<path d="M1250 596 c0 -2 14 -6 30 -8 17 -3 30 -1 30 4 0 4 -13 8 -30 8 -16 0
-30 -2 -30 -4z"/>
<path d="M721 553 c-2 -32 9 -53 27 -53 14 0 14 1 0 13 -9 6 -19 23 -21 37 -4
22 -4 22 -6 3z"/>
<path d="M773 535 c0 -22 2 -30 4 -17 2 12 2 30 0 40 -3 9 -5 -1 -4 -23z"/>
<path d="M1048 535 c2 -19 6 -35 8 -35 2 0 4 16 4 35 0 19 -4 35 -8 35 -4 0
-6 -16 -4 -35z"/>
<path d="M1129 532 c5 -34 6 -35 9 -8 2 16 0 32 -5 37 -5 5 -7 -7 -4 -29z"/>
<path d="M1373 535 c0 -22 2 -30 4 -17 2 12 2 30 0 40 -3 9 -5 -1 -4 -23z"/>
<path d="M1424 548 c-10 -13 -15 -20 -10 -16 5 4 17 -3 28 -15 l20 -22 -16 24
c-11 18 -13 28 -4 38 6 7 8 13 6 13 -3 0 -13 -10 -24 -22z"/>
<path d="M1665 528 c0 -38 -3 -43 -23 -42 -16 0 -20 -2 -12 -10 20 -20 45 8
48 53 2 22 0 41 -5 41 -4 0 -8 -19 -8 -42z"/>
<path d="M1700 535 c0 -19 2 -35 4 -35 2 0 6 16 8 35 2 19 0 35 -4 35 -4 0 -8
-16 -8 -35z"/>
<path d="M1793 535 c0 -22 2 -30 4 -17 2 12 2 30 0 40 -3 9 -5 -1 -4 -23z"/>
<path d="M1869 532 c5 -34 6 -35 9 -8 2 16 0 32 -5 37 -5 5 -7 -7 -4 -29z"/>
<path d="M2014 555 c-13 -32 25 -70 47 -48 6 6 2 9 -13 9 -19 -1 -23 4 -23 27
1 30 -3 34 -11 12z"/>
<path d="M2093 554 c-3 -9 -2 -24 4 -33 13 -20 45 -21 50 -1 4 12 3 13 -5 1
-16 -23 -45 -5 -40 24 6 28 1 33 -9 9z"/>
<path d="M2135 560 c3 -5 8 -10 11 -10 2 0 4 5 4 10 0 6 -5 10 -11 10 -5 0 -7
-4 -4 -10z"/>
<path d="M2224 556 c-3 -8 -4 -25 -2 -38 3 -17 5 -13 9 15 5 38 2 47 -7 23z"/>
<path d="M1482 535 c0 -16 2 -22 5 -12 2 9 2 23 0 30 -3 6 -5 -1 -5 -18z"/>
<path d="M803 536 c3 -26 33 -44 48 -29 9 9 7 11 -9 6 -16 -4 -24 1 -32 18 -7
17 -9 19 -7 5z"/>
<path d="M1167 543 c-15 -15 -5 -23 29 -23 19 0 33 4 30 9 -3 4 -18 6 -32 3
-19 -3 -25 -1 -20 7 8 12 3 15 -7 4z"/>
<path d="M1085 530 c-9 -15 4 -30 23 -29 15 1 14 2 -1 6 -11 3 -16 11 -13 19
6 16 0 19 -9 4z"/>
<path d="M1325 530 c-9 -15 4 -30 23 -29 15 1 14 2 -1 6 -11 3 -16 11 -13 19
6 16 0 19 -9 4z"/>
<path d="M1825 530 c-9 -15 4 -30 23 -29 15 1 14 2 -1 6 -11 3 -16 11 -13 19
6 16 0 19 -9 4z"/>
<path d="M11393 523 c75 -2 199 -2 275 0 75 1 13 3 -138 3 -151 0 -213 -2
-137 -3z"/>
<path d="M1497 489 c7 -7 15 -10 18 -7 3 3 -2 9 -12 12 -14 6 -15 5 -6 -5z"/>
<path d="M3402 438 c-15 -15 -16 -60 0 -76 16 -16 43 -15 58 3 15 18 -1 20
-18 3 -8 -8 -15 -8 -27 2 -19 16 -19 44 1 61 13 10 19 10 36 0 16 -10 19 -10
16 1 -6 17 -50 22 -66 6z"/>
<path d="M3490 401 c0 -28 5 -51 10 -51 6 0 10 9 10 20 0 26 14 25 32 -1 13
-20 14 -18 13 27 0 48 -1 49 -32 52 l-33 3 0 -50z m55 19 c0 -8 -8 -16 -17
-18 -13 -2 -18 3 -18 18 0 15 5 20 18 18 9 -2 17 -10 17 -18z"/>
<path d="M3580 400 l0 -50 38 1 c30 2 32 3 10 6 -35 5 -39 40 -5 46 l22 4 -22
2 c-33 2 -29 29 5 34 22 3 20 4 -10 6 l-38 1 0 -50z"/>
<path d="M3670 400 c0 -46 2 -50 23 -50 27 0 57 28 57 53 0 23 -28 47 -56 47
-22 0 -24 -4 -24 -50z m44 34 c35 -13 14 -74 -25 -74 -5 0 -9 18 -9 40 0 40 5
45 34 34z"/>
<path d="M3773 400 c0 -30 2 -43 4 -27 2 15 2 39 0 55 -2 15 -4 2 -4 -28z"/>
<path d="M3813 443 c13 -3 17 -15 17 -49 0 -24 5 -44 10 -44 6 0 10 20 10 44
0 34 4 46 18 49 9 3 -3 5 -28 5 -25 0 -37 -2 -27 -5z"/>
<path d="M3940 430 c-17 -31 -4 -69 25 -76 26 -6 45 1 45 18 0 7 -5 7 -14 -1
-22 -18 -46 -2 -46 30 0 34 23 48 47 28 14 -12 16 -12 11 1 -8 25 -55 25 -68
0z"/>
<path d="M4046 404 c-19 -56 -19 -54 -6 -54 6 0 10 7 10 15 0 8 9 15 20 15 11
0 23 -7 26 -15 4 -8 10 -15 15 -15 12 0 -23 92 -37 97 -7 2 -19 -17 -28 -43z
m32 -13 c-15 -5 -21 7 -13 26 7 17 8 17 15 -2 4 -11 3 -22 -2 -24z"/>
<path d="M4141 398 c1 -29 4 -43 6 -30 5 27 29 29 38 2 3 -11 11 -20 16 -20 7
0 7 6 0 17 -6 11 -6 24 1 36 12 24 -6 47 -38 47 -22 0 -24 -4 -23 -52z m47 19
c2 -12 -3 -17 -17 -17 -15 0 -21 6 -21 21 0 25 33 22 38 -4z"/>
<path d="M4230 400 c0 -46 2 -50 23 -50 27 0 57 28 57 53 0 23 -28 47 -56 47
-22 0 -24 -4 -24 -50z m44 34 c35 -13 14 -74 -25 -74 -5 0 -9 18 -9 40 0 40 5
45 34 34z"/>
<path d="M4370 442 c0 -6 9 -8 20 -5 14 4 20 0 20 -11 0 -9 -5 -16 -12 -16 -6
0 -3 -6 8 -14 28 -22 5 -43 -27 -25 -22 11 -23 11 -10 -5 8 -9 24 -16 35 -14
18 3 21 10 21 48 0 42 -2 45 -27 48 -16 2 -28 -1 -28 -6z"/>
<path d="M4460 442 c0 -6 9 -8 20 -5 14 4 20 0 20 -11 0 -9 -5 -16 -12 -16 -6
0 -3 -6 8 -14 28 -22 5 -43 -27 -25 -22 11 -23 11 -10 -5 8 -9 24 -16 35 -14
18 3 21 10 21 48 0 42 -2 45 -27 48 -16 2 -28 -1 -28 -6z"/>
<path d="M4545 440 c-4 -7 2 -9 19 -4 20 5 26 2 26 -10 0 -9 -8 -16 -17 -16
-17 -1 -17 -1 0 -11 20 -12 23 -39 4 -39 -7 0 -19 6 -26 13 -11 10 -13 9 -9
-3 6 -18 37 -24 58 -10 12 8 13 13 3 29 -8 12 -9 22 -3 26 5 3 7 12 3 20 -6
17 -49 20 -58 5z"/>
<path d="M4635 440 c-4 -7 2 -9 19 -4 20 5 26 2 26 -10 0 -9 -8 -16 -17 -16
-17 -1 -17 -1 0 -11 20 -12 23 -39 4 -39 -7 0 -19 6 -26 13 -11 10 -13 9 -9
-3 6 -18 37 -24 58 -10 12 8 13 13 3 29 -8 12 -9 22 -3 26 5 3 7 12 3 20 -6
17 -49 20 -58 5z"/>
<path d="M4761 398 c1 -29 4 -43 6 -30 3 15 11 22 28 22 27 0 40 26 24 46 -6
8 -22 14 -35 14 -22 0 -24 -4 -23 -52z m47 19 c2 -12 -3 -17 -17 -17 -15 0
-21 6 -21 21 0 25 33 22 38 -4z"/>
<path d="M4846 404 c-19 -56 -19 -54 -6 -54 6 0 10 7 10 15 0 8 9 15 20 15 11
0 23 -7 26 -15 4 -8 10 -15 15 -15 12 0 -23 92 -37 97 -7 2 -19 -17 -28 -43z
m32 -13 c-15 -5 -21 7 -13 26 7 17 8 17 15 -2 4 -11 3 -22 -2 -24z"/>
<path d="M4940 418 c11 -18 20 -42 20 -53 1 -12 6 -5 14 18 8 20 19 44 26 52
8 10 9 15 2 15 -6 0 -17 -10 -23 -22 l-12 -22 -15 22 c-23 35 -34 26 -12 -10z"/>
<path d="M5032 398 l1 -53 6 45 6 45 13 -42 c11 -38 32 -59 32 -34 0 5 5 22
12 38 l12 28 6 -40 c7 -40 7 -39 9 13 1 61 -17 68 -33 14 -5 -18 -12 -32 -16
-32 -4 0 -11 14 -16 32 -16 54 -34 47 -32 -14z"/>
<path d="M5150 400 l0 -50 38 1 c30 2 32 3 10 6 -35 5 -39 40 -5 46 l22 4 -22
2 c-33 2 -29 29 5 34 22 3 20 4 -10 6 l-38 1 0 -50z"/>
<path d="M5927 443 c-3 -5 5 -8 18 -8 13 0 21 3 18 8 -2 4 -10 7 -18 7 -8 0
-16 -3 -18 -7z"/>
<path d="M6005 440 c-3 -6 1 -7 10 -4 8 4 23 0 33 -7 15 -13 16 -12 3 4 -15
19 -36 22 -46 7z"/>
<path d="M6090 441 c0 -4 11 -6 25 -3 14 2 25 6 25 8 0 2 -11 4 -25 4 -14 0
-25 -4 -25 -9z"/>
<path d="M6210 431 c-5 -11 -10 -26 -9 -33 0 -7 5 -1 10 14 6 15 18 29 27 31
16 4 16 5 0 6 -10 0 -22 -8 -28 -18z"/>
<path d="M6330 443 c8 -3 19 -11 23 -17 6 -7 7 -6 4 4 -2 8 -12 16 -23 17 -13
2 -15 1 -4 -4z"/>
<path d="M8131 440 c0 -8 4 -24 9 -35 5 -13 9 -14 9 -5 0 8 -4 24 -9 35 -5 13
-9 14 -9 5z"/>
<path d="M8180 434 c0 -8 5 -12 10 -9 6 3 10 10 10 16 0 5 -4 9 -10 9 -5 0
-10 -7 -10 -16z"/>
<path d="M8236 419 c-8 -42 0 -50 9 -9 4 17 5 34 2 36 -2 3 -7 -10 -11 -27z"/>
<path d="M8399 433 c-4 -67 -4 -68 -26 -67 -12 0 -20 -3 -17 -8 3 -4 16 -7 29
-6 23 2 25 7 25 50 0 45 -9 69 -11 31z"/>
<path d="M8512 398 l1 -53 6 44 6 45 28 -42 c15 -23 29 -42 32 -42 3 0 4 24 3
53 l-1 52 -4 -44 -4 -45 -25 42 c-14 23 -29 42 -35 42 -5 0 -8 -24 -7 -52z"/>
<path d="M8826 441 c-4 -5 2 -7 13 -4 31 8 35 -17 7 -46 -34 -35 -33 -41 7
-40 23 1 26 3 10 6 -28 5 -29 11 -2 39 12 13 19 30 16 38 -7 17 -42 22 -51 7z"/>
<path d="M8911 436 c-27 -33 10 -109 39 -80 8 8 4 10 -12 10 -20 -1 -23 4 -23
34 0 28 4 35 20 35 14 0 22 -9 26 -30 6 -28 7 -28 8 -4 2 42 -34 64 -58 35z"/>
<path d="M9070 439 c-13 -9 -12 -10 2 -5 14 4 18 -3 21 -42 l3 -47 2 53 c2 53
-2 60 -28 41z"/>
<path d="M9137 443 c-3 -5 5 -8 18 -8 13 0 21 3 18 8 -2 4 -10 7 -18 7 -8 0
-16 -3 -18 -7z"/>
<path d="M9257 443 c-10 -9 -8 -65 2 -81 11 -18 43 -12 48 8 4 12 3 13 -5 1
-18 -25 -44 -5 -40 31 4 43 32 50 46 11 6 -15 11 -22 11 -15 2 36 -40 67 -62
45z"/>
<path d="M9340 426 c-14 -38 3 -78 33 -74 19 3 22 9 22 48 0 39 -3 45 -22 48
-17 3 -26 -3 -33 -22z m48 -23 c-3 -43 -32 -58 -41 -23 -8 32 3 60 25 60 16 0
19 -6 16 -37z"/>
<path d="M9476 403 c-18 -53 -20 -66 -5 -40 5 9 19 17 29 17 10 0 24 -8 29
-17 15 -26 13 -13 -5 40 -9 26 -20 47 -24 47 -4 0 -15 -21 -24 -47z m37 7 c4
-15 0 -20 -13 -20 -13 0 -17 5 -13 20 3 11 9 20 13 20 4 0 10 -9 13 -20z"/>
<path d="M9562 398 l1 -53 6 45 6 45 18 -44 c14 -34 21 -41 28 -30 5 7 9 19 9
24 0 6 -4 4 -9 -3 -6 -10 -13 -2 -25 27 -22 56 -36 52 -34 -11z"/>
<path d="M9637 428 c-4 -12 -4 -24 -2 -27 3 -2 6 2 6 10 1 8 5 -4 9 -26 l7
-40 2 53 c1 53 -12 70 -22 30z"/>
<path d="M10190 429 c-17 -31 -4 -68 27 -75 30 -8 53 15 53 51 0 45 -60 63
-80 24z m66 -15 c9 -34 -18 -64 -44 -48 -22 14 -27 41 -12 59 20 24 49 18 56
-11z"/>
<path d="M10342 400 c1 -45 2 -49 7 -20 4 22 12 35 21 35 9 0 17 -13 21 -35
l6 -35 2 31 c1 32 -20 60 -38 50 -5 -4 -12 2 -14 11 -3 10 -5 -7 -5 -37z"/>
<path d="M10288 435 c-10 -11 8 -79 22 -82 12 -4 13 -3 1 5 -9 6 -12 21 -9 41
4 30 -3 47 -14 36z"/>
<path d="M11343 400 c-1 -25 1 -37 4 -27 2 9 11 17 18 17 8 0 16 4 19 9 4 5
-3 7 -13 4 -14 -4 -21 1 -24 19 -2 12 -4 3 -4 -22z"/>
<path d="M11800 406 c0 -19 3 -37 8 -40 4 -2 6 13 4 35 -5 48 -12 51 -12 5z"/>
<path d="M233 411 c-47 -22 -83 -79 -83 -131 0 -50 35 -107 80 -130 50 -25 90
-25 140 0 45 23 80 80 80 130 0 52 -36 109 -83 131 -23 10 -53 19 -67 19 -14
0 -44 -9 -67 -19z m77 -76 c0 -20 5 -25 25 -25 31 0 31 1 0 -60 -28 -55 -45
-64 -45 -25 0 20 -5 25 -25 25 -31 0 -31 -1 0 60 28 55 45 64 45 25z"/>
<path d="M276 293 c-4 -9 -5 -16 -4 -17 2 -1 13 -6 25 -13 18 -10 22 -9 27 4
4 9 5 16 4 17 -2 1 -13 6 -25 13 -18 10 -22 9 -27 -4z"/>
<path d="M6261 403 c0 -19 -8 -36 -18 -42 -10 -6 -13 -11 -7 -11 20 0 36 28
31 57 -4 27 -4 27 -6 -4z"/>
<path d="M6301 405 c-1 -31 14 -55 33 -55 5 0 2 6 -6 13 -9 6 -19 26 -21 42
l-4 30 -2 -30z"/>
<path d="M8303 410 c6 -11 15 -20 19 -20 12 0 -3 28 -18 34 -11 4 -12 2 -1
-14z"/>
<path d="M8356 414 c-9 -8 -16 -20 -16 -26 0 -6 1 -9 3 -7 1 2 11 14 21 27 22
25 16 30 -8 6z"/>
<path d="M8626 414 c-9 -8 -16 -20 -16 -26 0 -6 1 -9 3 -7 1 2 11 14 21 27 22
25 16 30 -8 6z"/>
<path d="M8746 415 c-9 -26 -7 -32 5 -12 6 10 9 21 6 23 -2 3 -7 -2 -11 -11z"/>
<path d="M10430 416 c-27 -33 12 -88 42 -58 6 6 0 8 -16 5 -22 -5 -26 -2 -26
20 0 34 19 45 37 22 7 -11 13 -14 13 -9 0 11 -21 34 -31 34 -4 0 -12 -7 -19
-14z"/>
<path d="M10501 386 c2 -34 3 -36 6 -11 3 17 9 35 14 41 5 7 3 11 -6 11 -11 0
-15 -11 -14 -41z"/>
<path d="M11224 416 c-10 -26 4 -48 28 -44 17 2 23 10 23 28 0 18 -6 26 -23
28 -13 2 -25 -3 -28 -12z"/>
<path d="M6080 410 c0 -5 5 -10 11 -10 5 0 7 5 4 10 -3 6 -8 10 -11 10 -2 0
-4 -4 -4 -10z"/>
<path d="M7077 409 c7 -7 15 -10 18 -7 3 3 -2 9 -12 12 -14 6 -15 5 -6 -5z"/>
<path d="M7142 400 c0 -14 2 -19 5 -12 2 6 2 18 0 25 -3 6 -5 1 -5 -13z"/>
<path d="M7353 405 c-3 -9 -3 -18 -1 -21 3 -3 8 4 11 16 6 23 -1 27 -10 5z"/>
<path d="M7490 411 c0 -6 4 -13 10 -16 6 -3 7 1 4 9 -7 18 -14 21 -14 7z"/>
<path d="M8201 404 c0 -11 3 -14 6 -6 3 7 2 16 -1 19 -3 4 -6 -2 -5 -13z"/>
<path d="M8264 405 c-13 -32 25 -70 47 -48 6 6 2 9 -13 9 -19 -1 -23 4 -23 27
1 30 -3 34 -11 12z"/>
<path d="M8665 392 c0 -22 -4 -27 -23 -26 -16 0 -20 -2 -12 -10 7 -7 16 -7 28
0 20 13 28 42 15 55 -5 5 -9 -3 -8 -19z"/>
<path d="M8701 413 c-2 -20 21 -63 30 -57 5 3 9 10 9 15 0 6 -4 8 -9 5 -5 -4
-14 6 -19 21 -6 16 -11 23 -11 16z"/>
<path d="M9147 383 l-29 -33 39 1 c31 2 33 3 9 6 l-28 5 23 24 c12 13 21 25
18 27 -2 2 -17 -11 -32 -30z"/>
<path d="M11446 405 c-3 -8 -1 -15 4 -15 6 0 10 7 10 15 0 8 -2 15 -4 15 -2 0
-6 -7 -10 -15z"/>
<path d="M11552 390 c0 -19 2 -27 5 -17 2 9 2 25 0 35 -3 9 -5 1 -5 -18z"/>
<path d="M11769 388 c4 -28 6 -29 9 -9 2 13 0 27 -5 32 -6 6 -7 -3 -4 -23z"/>
<path d="M5921 394 c0 -11 3 -14 6 -6 3 7 2 16 -1 19 -3 4 -6 -2 -5 -13z"/>
<path d="M6022 387 c-30 -31 -28 -37 11 -36 31 2 31 2 3 6 l-28 5 23 24 c12
13 20 24 17 24 -2 0 -14 -10 -26 -23z"/>
<path d="M6128 383 c5 -21 7 -23 10 -9 2 10 0 22 -6 28 -6 6 -7 0 -4 -19z"/>
<path d="M6356 395 c-3 -9 -6 -22 -5 -28 0 -7 5 -1 10 12 5 13 8 26 5 28 -2 2
-6 -3 -10 -12z"/>
<path d="M7427 399 c7 -7 15 -10 18 -7 3 3 -2 9 -12 12 -14 6 -15 5 -6 -5z"/>
<path d="M8171 394 c0 -11 3 -14 6 -6 3 7 2 16 -1 19 -3 4 -6 -2 -5 -13z"/>
<path d="M11592 385 c0 -16 2 -22 5 -12 2 9 2 23 0 30 -3 6 -5 -1 -5 -18z"/>
<path d="M11732 385 c0 -16 2 -22 5 -12 2 9 2 23 0 30 -3 6 -5 -1 -5 -18z"/>
<path d="M7210 391 c0 -10 29 -36 34 -30 1 2 -6 12 -16 22 -10 9 -18 13 -18 8z"/>
<path d="M7280 391 c0 -10 29 -36 34 -30 1 2 -6 12 -16 22 -10 9 -18 13 -18 8z"/>
<path d="M7460 382 c0 -6 -8 -13 -17 -15 -16 -4 -16 -5 -1 -6 18 -1 34 16 24
26 -3 4 -6 1 -6 -5z"/>
<path d="M11410 381 c0 -10 19 -25 25 -20 1 2 -3 10 -11 17 -8 7 -14 8 -14 3z"/>
<path d="M7095 370 c-16 -7 -17 -9 -3 -9 9 -1 20 4 23 9 7 11 7 11 -20 0z"/>
<path d="M8150 366 c0 -9 5 -16 10 -16 6 0 10 4 10 9 0 6 -4 13 -10 16 -5 3
-10 -1 -10 -9z"/>
<path d="M8210 366 c0 -9 5 -16 10 -16 6 0 10 4 10 9 0 6 -4 13 -10 16 -5 3
-10 -1 -10 -9z"/>
<path d="M11668 368 c5 -5 16 -8 23 -6 8 3 3 7 -10 11 -17 4 -21 3 -13 -5z"/>
<path d="M5240 360 c0 -5 5 -10 10 -10 6 0 10 5 10 10 0 6 -4 10 -10 10 -5 0
-10 -4 -10 -10z"/>
<path d="M5330 360 c0 -5 5 -10 10 -10 6 0 10 5 10 10 0 6 -4 10 -10 10 -5 0
-10 -4 -10 -10z"/>
<path d="M5910 358 c0 -5 11 -8 24 -8 14 0 27 3 29 8 3 4 -8 7 -24 7 -16 0
-29 -3 -29 -7z"/>
<path d="M6097 359 c7 -7 15 -10 18 -7 3 3 -2 9 -12 12 -14 6 -15 5 -6 -5z"/>
<path d="M7368 363 c7 -3 16 -2 19 1 4 3 -2 6 -13 5 -11 0 -14 -3 -6 -6z"/>
<path d="M11496 353 c-6 -14 -5 -15 5 -6 7 7 10 15 7 18 -3 3 -9 -2 -12 -12z"/>
<path d="M8433 345 c-3 -9 -3 -18 -1 -21 3 -3 8 4 11 16 6 23 -1 27 -10 5z"/>
<path d="M8991 344 c0 -11 3 -14 6 -6 3 7 2 16 -1 19 -3 4 -6 -2 -5 -13z"/>
<path d="M11393 273 c75 -2 199 -2 275 0 75 1 13 3 -138 3 -151 0 -213 -2
-137 -3z"/>
<path d="M11378 93 c78 -2 206 -2 285 0 78 1 14 3 -143 3 -157 0 -221 -2 -142
-3z"/>
<path d="M11205 80 c-3 -6 1 -7 9 -4 18 7 21 14 7 14 -6 0 -13 -4 -16 -10z"/>
<path d="M11810 86 c0 -2 7 -7 16 -10 8 -3 12 -2 9 4 -6 10 -25 14 -25 6z"/>
<path d="M11155 29 c-4 -6 -5 -12 -2 -15 2 -3 7 2 10 11 7 17 1 20 -8 4z"/>
<path d="M11876 27 c3 -10 9 -15 12 -12 3 3 0 11 -7 18 -10 9 -11 8 -5 -6z"/>
<path d="M3430 10 c0 -5 5 -10 10 -10 6 0 10 5 10 10 0 6 -4 10 -10 10 -5 0
-10 -4 -10 -10z"/>
<path d="M3490 10 c0 -5 5 -10 10 -10 6 0 10 5 10 10 0 6 -4 10 -10 10 -5 0
-10 -4 -10 -10z"/>
<path d="M3548 10 c13 -6 31 -6 45 0 18 7 14 9 -23 9 -37 0 -41 -2 -22 -9z"/>
<path d="M3620 12 c0 -4 15 -8 34 -8 19 0 32 4 30 8 -7 10 -64 10 -64 0z"/>
<path d="M3726 11 c-3 -4 8 -8 24 -7 17 1 30 4 30 9 0 10 -48 9 -54 -2z"/>
<path d="M3818 10 c13 -6 31 -6 45 0 18 7 14 9 -23 9 -37 0 -41 -2 -22 -9z"/>
<path d="M3930 12 c0 -4 15 -8 34 -8 19 0 32 4 30 8 -7 10 -64 10 -64 0z"/>
<path d="M4025 10 c3 -5 8 -10 11 -10 2 0 4 5 4 10 0 6 -5 10 -11 10 -5 0 -7
-4 -4 -10z"/>
<path d="M4085 10 c-3 -5 -1 -10 4 -10 6 0 11 5 11 10 0 6 -2 10 -4 10 -3 0
-8 -4 -11 -10z"/>
<path d="M4120 10 c0 -5 7 -10 15 -10 8 0 15 5 15 10 0 6 -7 10 -15 10 -8 0
-15 -4 -15 -10z"/>
<path d="M4200 10 c0 -5 7 -10 15 -10 8 0 15 5 15 10 0 6 -7 10 -15 10 -8 0
-15 -4 -15 -10z"/>
<path d="M4250 10 c0 -5 7 -10 15 -10 8 0 15 5 15 10 0 6 -7 10 -15 10 -8 0
-15 -4 -15 -10z"/>
<path d="M4320 10 c0 -5 5 -10 10 -10 6 0 10 5 10 10 0 6 -4 10 -10 10 -5 0
-10 -4 -10 -10z"/>
<path d="M4350 16 c0 -8 48 -12 66 -5 13 5 7 8 -23 8 -24 1 -43 -1 -43 -3z"/>
<path d="M5987 13 c-3 -5 8 -8 24 -9 15 -1 26 3 23 7 -6 11 -41 12 -47 2z"/>
<path d="M6095 10 c-3 -5 1 -10 9 -10 9 0 16 5 16 10 0 6 -4 10 -9 10 -6 0
-13 -4 -16 -10z"/>
<path d="M6196 11 c-3 -4 8 -8 23 -7 16 1 27 4 24 9 -6 10 -41 9 -47 -2z"/>
<path d="M6287 13 c-3 -5 8 -8 23 -8 15 0 26 3 23 8 -2 4 -13 7 -23 7 -10 0
-21 -3 -23 -7z"/>
<path d="M8140 12 c0 -5 14 -7 30 -4 17 2 30 6 30 8 0 2 -13 4 -30 4 -16 0
-30 -4 -30 -8z"/>
<path d="M8380 10 c0 -5 5 -10 10 -10 6 0 10 5 10 10 0 6 -4 10 -10 10 -5 0
-10 -4 -10 -10z"/>
<path d="M8685 11 c-3 -6 4 -9 15 -8 11 1 20 5 20 9 0 11 -28 10 -35 -1z"/>
<path d="M8750 11 c0 -4 11 -6 25 -3 14 2 25 6 25 8 0 2 -11 4 -25 4 -14 0
-25 -4 -25 -9z"/>
<path d="M8906 12 c-3 -5 1 -9 9 -9 8 0 15 4 15 9 0 10 -17 10 -24 0z"/>
<path d="M8967 13 c-3 -5 8 -8 24 -9 15 -1 26 3 23 7 -6 11 -41 12 -47 2z"/>
<path d="M9097 13 c-3 -5 6 -8 19 -8 13 0 24 3 24 8 0 4 -9 7 -19 7 -11 0 -22
-3 -24 -7z"/>
<path d="M9187 13 c-3 -5 5 -8 18 -8 13 0 21 3 18 7 -6 10 -30 10 -36 1z"/>
<path d="M9326 12 c-3 -5 1 -9 9 -9 8 0 12 4 9 9 -3 4 -7 8 -9 8 -2 0 -6 -4
-9 -8z"/>
<path d="M9400 10 c0 -5 5 -10 10 -10 6 0 10 5 10 10 0 6 -4 10 -10 10 -5 0
-10 -4 -10 -10z"/>
<path d="M9480 10 c0 -5 5 -10 10 -10 6 0 10 5 10 10 0 6 -4 10 -10 10 -5 0
-10 -4 -10 -10z"/>
<path d="M10196 12 c-3 -5 10 -8 29 -8 18 1 31 4 28 9 -6 10 -51 9 -57 -1z"/>
<path d="M11670 9 c0 -5 5 -7 10 -4 6 3 10 8 10 11 0 2 -4 4 -10 4 -5 0 -10
-5 -10 -11z"/>
<path d="M11238 3 c6 -2 18 -2 25 0 6 3 1 5 -13 5 -14 0 -19 -2 -12 -5z"/>
</g>
</svg>
